<?xml version="1.0" encoding="UTF-8" standalone="no"?>
<svg
   xmlns:dc="http://purl.org/dc/elements/1.1/"
   xmlns:cc="http://creativecommons.org/ns#"
   xmlns:rdf="http://www.w3.org/1999/02/22-rdf-syntax-ns#"
   xmlns:svg="http://www.w3.org/2000/svg"
   xmlns="http://www.w3.org/2000/svg"
   xmlns:sodipodi="http://sodipodi.sourceforge.net/DTD/sodipodi-0.dtd"
   xmlns:inkscape="http://www.inkscape.org/namespaces/inkscape"
   width="4.2333331mm"
   height="4.2333331mm"
   viewBox="0 0 4.2333331 4.2333331"
   version="1.1"
   id="svg8"
   inkscape:version="1.0.2 (e86c870879, 2021-01-15, custom)"
   sodipodi:docname="acorn.svg">
  <defs
     id="defs2" />
  <sodipodi:namedview
     id="base"
     pagecolor="#ffffff"
     bordercolor="#666666"
     borderopacity="1.0"
     inkscape:pageopacity="0.0"
     inkscape:pageshadow="2"
     inkscape:zoom="11.2"
     inkscape:cx="16.429003"
     inkscape:cy="16.245658"
     inkscape:document-units="mm"
     inkscape:current-layer="layer1"
     inkscape:document-rotation="0"
     showgrid="false"
     inkscape:window-width="1920"
     inkscape:window-height="1017"
     inkscape:window-x="-8"
     inkscape:window-y="-8"
     inkscape:window-maximized="1" />
  <metadata
     id="metadata5">
    <rdf:RDF>
      <cc:Work
         rdf:about="">
        <dc:format>image/svg+xml</dc:format>
        <dc:type
           rdf:resource="http://purl.org/dc/dcmitype/StillImage" />
        <dc:title></dc:title>
      </cc:Work>
    </rdf:RDF>
  </metadata>
  <g
     inkscape:label="Calque 1"
     inkscape:groupmode="layer"
     id="layer1"
     transform="translate(79.129317,-80.825484)">
    <path
       id="path1343"
       style="fill:#000000;fill-opacity:1;stroke-width:0.999999"
       d="M 6 0 L 6 1 L 6 2 L 7 2 L 7 1 L 7 0 L 6 0 z M 7 2 L 7 3 L 7 4 L 8 4 L 8 3 L 8 2 L 7 2 z M 8 4 L 8 5 L 9 5 L 10 5 L 11 5 L 12 5 L 12 4 L 11 4 L 10 4 L 9 4 L 8 4 z M 12 5 L 12 6 L 12 7 L 13 7 L 13 6 L 13 5 L 12 5 z M 12 7 L 11 7 L 10 7 L 9 7 L 8 7 L 7 7 L 6 7 L 5 7 L 4 7 L 3 7 L 3 8 L 3 9 L 3 10 L 3 11 L 3 12 L 3 13 L 4 13 L 4 12 L 4 11 L 4 10 L 4 9 L 4 8 L 5 8 L 6 8 L 7 8 L 8 8 L 9 8 L 10 8 L 11 8 L 11 9 L 11 10 L 11 11 L 11 12 L 11 13 L 12 13 L 12 12 L 12 11 L 12 10 L 12 9 L 12 8 L 12 7 z M 11 13 L 10 13 L 10 14 L 11 14 L 11 13 z M 10 14 L 9 14 L 8 14 L 8 15 L 9 15 L 10 15 L 10 14 z M 8 15 L 7 15 L 7 16 L 8 16 L 8 15 z M 7 15 L 7 14 L 6 14 L 5 14 L 5 15 L 6 15 L 7 15 z M 5 14 L 5 13 L 4 13 L 4 14 L 5 14 z M 3 7 L 3 6 L 3 5 L 2 5 L 2 6 L 2 7 L 3 7 z M 3 5 L 4 5 L 5 5 L 6 5 L 7 5 L 7 4 L 6 4 L 5 4 L 4 4 L 3 4 L 3 5 z "
       transform="matrix(0.26458333,0,0,0.26458333,-79.129317,80.825484)" />
  </g>
</svg>
