<?xml version="1.0" encoding="UTF-8" standalone="no"?>
<svg
   xmlns:dc="http://purl.org/dc/elements/1.1/"
   xmlns:cc="http://creativecommons.org/ns#"
   xmlns:rdf="http://www.w3.org/1999/02/22-rdf-syntax-ns#"
   xmlns:svg="http://www.w3.org/2000/svg"
   xmlns="http://www.w3.org/2000/svg"
   xmlns:sodipodi="http://sodipodi.sourceforge.net/DTD/sodipodi-0.dtd"
   xmlns:inkscape="http://www.inkscape.org/namespaces/inkscape"
   version="1.1"
   id="svg10"
   width="16"
   height="16"
   viewBox="0 0 16 16"
   sodipodi:docname="anglerfish.svg"
   inkscape:version="1.0.2 (e86c870879, 2021-01-15, custom)">
  <metadata
     id="metadata16">
    <rdf:RDF>
      <cc:Work
         rdf:about="">
        <dc:format>image/svg+xml</dc:format>
        <dc:type
           rdf:resource="http://purl.org/dc/dcmitype/StillImage" />
        <dc:title></dc:title>
      </cc:Work>
    </rdf:RDF>
  </metadata>
  <defs
     id="defs14" />
  <sodipodi:namedview
     pagecolor="#ffffff"
     bordercolor="#666666"
     borderopacity="1"
     objecttolerance="10"
     gridtolerance="10"
     guidetolerance="10"
     inkscape:pageopacity="0"
     inkscape:pageshadow="2"
     inkscape:window-width="1540"
     inkscape:window-height="1040"
     id="namedview12"
     showgrid="false"
     inkscape:zoom="18.274291"
     inkscape:cx="9.6866346"
     inkscape:cy="5.7635062"
     inkscape:window-x="130"
     inkscape:window-y="0"
     inkscape:window-maximized="0"
     inkscape:current-layer="g18" />
  <g
     inkscape:groupmode="layer"
     inkscape:label="Image"
     id="g18"
     transform="translate(-0.32833011,-5.3080035)">
    <path
       id="path500"
       style="fill:#000000;fill-opacity:1"
       d="M 12 0 L 12 1 L 13 1 L 14 1 L 14 0 L 13 0 L 12 0 z M 14 1 L 14 2 L 14 3 L 15 3 L 15 2 L 15 1 L 14 1 z M 15 3 L 15 4 L 14 4 L 14 3 L 13 3 L 13 4 L 13 5 L 14 5 L 14 6 L 15 6 L 15 5 L 16 5 L 16 4 L 16 3 L 15 3 z M 12 1 L 11 1 L 11 2 L 12 2 L 12 1 z M 11 2 L 10 2 L 10 3 L 10 4 L 9 4 L 9 5 L 9 6 L 8 6 L 7 6 L 7 7 L 6 7 L 5 7 L 5 8 L 4 8 L 4 9 L 3 9 L 3 10 L 2 10 L 2 9 L 1 9 L 1 8 L 0 8 L 0 9 L 0 10 L 1 10 L 1 11 L 1 12 L 2 12 L 2 13 L 2 14 L 1 14 L 1 15 L 2 15 L 3 15 L 3 14 L 4 14 L 4 15 L 5 15 L 6 15 L 7 15 L 8 15 L 9 15 L 10 15 L 11 15 L 12 15 L 13 15 L 14 15 L 15 15 L 15 14 L 16 14 L 16 13 L 16 12 L 16 11 L 16 10 L 15 10 L 14 10 L 14 9 L 14 8 L 13 8 L 13 7 L 13 6 L 12 6 L 11 6 L 11 5 L 11 4 L 11 3 L 11 2 z M 11 9 L 12 9 L 12 10 L 11 10 L 11 9 z "
       transform="translate(0.32833011,5.3080035)" />
  </g>
</svg>
