<?xml version="1.0" encoding="UTF-8" standalone="no"?>
<svg
   xmlns:dc="http://purl.org/dc/elements/1.1/"
   xmlns:cc="http://creativecommons.org/ns#"
   xmlns:rdf="http://www.w3.org/1999/02/22-rdf-syntax-ns#"
   xmlns:svg="http://www.w3.org/2000/svg"
   xmlns="http://www.w3.org/2000/svg"
   version="1.1"
   id="svg2"
   viewBox="0 0 15.999999 15.999999"
   height="4.5155554mm"
   width="4.5155554mm">
  <defs
     id="defs4" />
  <metadata
     id="metadata7">
    <rdf:RDF>
      <cc:Work
         rdf:about="">
        <dc:format>image/svg+xml</dc:format>
        <dc:type
           rdf:resource="http://purl.org/dc/dcmitype/StillImage" />
        <dc:title></dc:title>
      </cc:Work>
    </rdf:RDF>
  </metadata>
  <g
     transform="translate(-886.49414,-910.58929)"
     id="layer1">
    <path
       id="path8890"
       transform="translate(886.49414,910.58929)"
       d="M 7 1 L 7 2 L 8 2 L 9 2 L 10 2 L 11 2 L 11 1 L 10 1 L 9 1 L 8 1 L 7 1 z M 11 2 L 11 3 L 11 4 L 11 5 L 11 6 L 11 7 L 11 8 L 11 9 L 11 10 L 11 11 L 11 12 L 11 13 L 12 13 L 12 12 L 12 11 L 12 10 L 12 9 L 12 8 L 12 7 L 12 6 L 12 5 L 12 4 L 12 3 L 12 2 L 11 2 z M 11 13 L 10 13 L 10 14 L 11 14 L 11 13 z M 10 14 L 9 14 L 8 14 L 7 14 L 6 14 L 6 15 L 7 15 L 8 15 L 9 15 L 10 15 L 10 14 z M 6 14 L 6 13 L 5 13 L 5 14 L 6 14 z M 5 13 L 5 12 L 5 11 L 5 10 L 5 9 L 5 8 L 5 7 L 5 6 L 4 6 L 4 7 L 4 8 L 4 9 L 4 10 L 4 11 L 4 12 L 4 13 L 5 13 z M 7 2 L 6 2 L 6 3 L 6 4 L 6 5 L 6 6 L 6 7 L 6 8 L 6 9 L 6 10 L 6 11 L 6 12 L 7 12 L 7 11 L 7 10 L 7 9 L 7 8 L 7 7 L 7 6 L 7 5 L 7 4 L 7 3 L 7 2 z M 7 12 L 7 13 L 8 13 L 9 13 L 9 12 L 8 12 L 7 12 z M 9 12 L 10 12 L 10 11 L 10 10 L 10 9 L 10 8 L 10 7 L 10 6 L 9 6 L 9 7 L 9 8 L 9 9 L 9 10 L 9 11 L 9 12 z "
       style="fill:#000000;fill-opacity:1" />
  </g>
</svg>
