<?xml version="1.0" encoding="UTF-8" standalone="no"?>
<svg
   xmlns:dc="http://purl.org/dc/elements/1.1/"
   xmlns:cc="http://creativecommons.org/ns#"
   xmlns:rdf="http://www.w3.org/1999/02/22-rdf-syntax-ns#"
   xmlns:svg="http://www.w3.org/2000/svg"
   xmlns="http://www.w3.org/2000/svg"
   version="1.1"
   id="svg2"
   viewBox="0 0 15.999999 15.999999"
   height="4.5155554mm"
   width="4.5155554mm">
  <defs
     id="defs4" />
  <metadata
     id="metadata7">
    <rdf:RDF>
      <cc:Work
         rdf:about="">
        <dc:format>image/svg+xml</dc:format>
        <dc:type
           rdf:resource="http://purl.org/dc/dcmitype/StillImage" />
        <dc:title></dc:title>
      </cc:Work>
    </rdf:RDF>
  </metadata>
  <g
     transform="translate(-826.28571,-892.93365)"
     id="layer1">
    <path
       id="path4157"
       transform="translate(826.28571,892.93365)"
       d="M 4 0 L 4 1 L 4 2 L 5 2 L 5 1 L 5 0 L 4 0 z M 10 1 L 10 2 L 9 2 L 9 3 L 8 3 L 8 4 L 8 5 L 7 5 L 7 6 L 6 6 L 6 7 L 5 7 L 5 8 L 4 8 L 3 8 L 3 9 L 2 9 L 2 10 L 1 10 L 1 11 L 1 12 L 1 13 L 1 14 L 2 14 L 2 13 L 2 12 L 2 11 L 3 11 L 3 10 L 4 10 L 4 9 L 5 9 L 6 9 L 6 8 L 7 8 L 7 7 L 8 7 L 8 6 L 9 6 L 9 5 L 9 4 L 10 4 L 10 3 L 11 3 L 11 2 L 12 2 L 13 2 L 14 2 L 14 1 L 13 1 L 12 1 L 11 1 L 10 1 z M 14 2 L 14 3 L 14 4 L 15 4 L 15 3 L 15 2 L 14 2 z M 14 4 L 13 4 L 13 5 L 14 5 L 14 4 z M 14 5 L 14 6 L 15 6 L 15 5 L 14 5 z M 14 6 L 13 6 L 13 7 L 14 7 L 14 6 z M 13 6 L 13 5 L 12 5 L 12 6 L 13 6 z M 12 6 L 11 6 L 11 7 L 12 7 L 12 6 z M 11 7 L 10 7 L 10 6 L 9 6 L 9 7 L 8 7 L 8 8 L 9 8 L 9 9 L 8 9 L 8 8 L 7 8 L 7 9 L 6 9 L 6 10 L 7 10 L 7 11 L 8 11 L 8 10 L 9 10 L 9 11 L 8 11 L 8 12 L 8 13 L 9 13 L 9 14 L 10 14 L 10 13 L 10 12 L 10 11 L 11 11 L 11 10 L 12 10 L 13 10 L 14 10 L 14 9 L 13 9 L 13 8 L 12 8 L 11 8 L 11 9 L 10 9 L 10 8 L 11 8 L 11 7 z M 11 11 L 11 12 L 11 13 L 11 14 L 11 15 L 12 15 L 12 14 L 12 13 L 13 13 L 13 12 L 14 12 L 15 12 L 15 11 L 14 11 L 13 11 L 12 11 L 11 11 z M 13 13 L 13 14 L 13 15 L 14 15 L 14 14 L 15 14 L 15 13 L 14 13 L 13 13 z M 7 11 L 6 11 L 6 12 L 7 12 L 7 11 z M 6 12 L 5 12 L 5 13 L 6 13 L 6 12 z M 6 13 L 6 14 L 7 14 L 7 13 L 6 13 z M 6 14 L 5 14 L 5 15 L 6 15 L 6 14 z M 5 14 L 5 13 L 4 13 L 4 14 L 5 14 z M 4 14 L 3 14 L 2 14 L 2 15 L 3 15 L 4 15 L 4 14 z M 5 7 L 5 6 L 5 5 L 4 5 L 3 5 L 3 6 L 3 7 L 4 7 L 5 7 z M 5 5 L 6 5 L 7 5 L 7 4 L 7 3 L 6 3 L 5 3 L 5 4 L 5 5 z M 0 4 L 0 5 L 1 5 L 2 5 L 2 4 L 1 4 L 0 4 z "
       style="fill:#000000;fill-opacity:1" />
  </g>
</svg>
