<?xml version="1.0" encoding="UTF-8" standalone="no"?>
<svg
   xmlns:dc="http://purl.org/dc/elements/1.1/"
   xmlns:cc="http://creativecommons.org/ns#"
   xmlns:rdf="http://www.w3.org/1999/02/22-rdf-syntax-ns#"
   xmlns:svg="http://www.w3.org/2000/svg"
   xmlns="http://www.w3.org/2000/svg"
   xmlns:sodipodi="http://sodipodi.sourceforge.net/DTD/sodipodi-0.dtd"
   xmlns:inkscape="http://www.inkscape.org/namespaces/inkscape"
   width="4.2333331mm"
   height="4.2333331mm"
   viewBox="0 0 4.2333331 4.2333331"
   version="1.1"
   id="svg8"
   inkscape:version="1.0.2 (e86c870879, 2021-01-15, custom)"
   sodipodi:docname="beer.svg">
  <defs
     id="defs2" />
  <sodipodi:namedview
     id="base"
     pagecolor="#ffffff"
     bordercolor="#666666"
     borderopacity="1.0"
     inkscape:pageopacity="0.0"
     inkscape:pageshadow="2"
     inkscape:zoom="15.839192"
     inkscape:cx="11.784698"
     inkscape:cy="1.7993767"
     inkscape:document-units="mm"
     inkscape:current-layer="layer1"
     inkscape:document-rotation="0"
     showgrid="false"
     inkscape:window-width="1920"
     inkscape:window-height="1017"
     inkscape:window-x="-8"
     inkscape:window-y="-8"
     inkscape:window-maximized="1" />
  <metadata
     id="metadata5">
    <rdf:RDF>
      <cc:Work
         rdf:about="">
        <dc:format>image/svg+xml</dc:format>
        <dc:type
           rdf:resource="http://purl.org/dc/dcmitype/StillImage" />
        <dc:title></dc:title>
      </cc:Work>
    </rdf:RDF>
  </metadata>
  <g
     inkscape:label="Calque 1"
     inkscape:groupmode="layer"
     id="layer1"
     transform="translate(96.383926,-74.272319)">
    <path
       id="path494"
       style="fill:#000000;fill-opacity:1;stroke-width:0.999999"
       d="M 4 3 L 4 4 L 3 4 L 3 5 L 3 6 L 3 7 L 3 8 L 3 9 L 3 10 L 3 11 L 3 12 L 3 13 L 3 14 L 4 14 L 4 15 L 5 15 L 6 15 L 7 15 L 8 15 L 9 15 L 10 15 L 11 15 L 11 14 L 12 14 L 12 13 L 12 12 L 13 12 L 14 12 L 14 11 L 13 11 L 12 11 L 12 10 L 12 9 L 12 8 L 12 7 L 13 7 L 14 7 L 14 8 L 14 9 L 14 10 L 14 11 L 15 11 L 15 10 L 15 9 L 15 8 L 15 7 L 15 6 L 14 6 L 13 6 L 12 6 L 12 5 L 12 4 L 11 4 L 10 4 L 10 3 L 9 3 L 8 3 L 7 3 L 6 3 L 5 3 L 4 3 z M 8 6 L 9 6 L 9 7 L 9 8 L 9 9 L 9 10 L 9 11 L 9 12 L 10 12 L 10 11 L 10 10 L 10 9 L 10 8 L 10 7 L 10 6 L 11 6 L 11 7 L 11 8 L 11 9 L 11 10 L 11 11 L 11 12 L 11 13 L 10 13 L 9 13 L 8 13 L 7 13 L 6 13 L 5 13 L 4 13 L 4 12 L 4 11 L 4 10 L 4 9 L 5 9 L 5 10 L 5 11 L 5 12 L 6 12 L 6 11 L 6 10 L 6 9 L 6 8 L 6 7 L 7 7 L 7 8 L 7 9 L 7 10 L 7 11 L 7 12 L 8 12 L 8 11 L 8 10 L 8 9 L 8 8 L 8 7 L 8 6 z "
       transform="matrix(0.26458333,0,0,0.26458333,-96.383926,74.272319)" />
  </g>
</svg>
