<?xml version="1.0" encoding="UTF-8" standalone="no"?>
<svg
   xmlns:dc="http://purl.org/dc/elements/1.1/"
   xmlns:cc="http://creativecommons.org/ns#"
   xmlns:rdf="http://www.w3.org/1999/02/22-rdf-syntax-ns#"
   xmlns:svg="http://www.w3.org/2000/svg"
   xmlns="http://www.w3.org/2000/svg"
   xmlns:sodipodi="http://sodipodi.sourceforge.net/DTD/sodipodi-0.dtd"
   xmlns:inkscape="http://www.inkscape.org/namespaces/inkscape"
   version="1.1"
   id="svg10"
   width="16"
   height="16"
   viewBox="0 0 16 16"
   sodipodi:docname="blog-1041uuu.svg"
   inkscape:version="1.0.2 (e86c870879, 2021-01-15, custom)">
  <metadata
     id="metadata16">
    <rdf:RDF>
      <cc:Work
         rdf:about="">
        <dc:format>image/svg+xml</dc:format>
        <dc:type
           rdf:resource="http://purl.org/dc/dcmitype/StillImage" />
        <dc:title></dc:title>
      </cc:Work>
    </rdf:RDF>
  </metadata>
  <defs
     id="defs14" />
  <sodipodi:namedview
     pagecolor="#ffffff"
     bordercolor="#666666"
     borderopacity="1"
     objecttolerance="10"
     gridtolerance="10"
     guidetolerance="10"
     inkscape:pageopacity="0"
     inkscape:pageshadow="2"
     inkscape:window-width="1540"
     inkscape:window-height="1040"
     id="namedview12"
     showgrid="false"
     inkscape:zoom="25.84375"
     inkscape:cx="10.667671"
     inkscape:cy="8.5433642"
     inkscape:window-x="78"
     inkscape:window-y="0"
     inkscape:window-maximized="0"
     inkscape:current-layer="g18" />
  <g
     inkscape:groupmode="layer"
     inkscape:label="Image"
     id="g18"
     transform="translate(3,-2)">
    <path
       id="path432"
       style="fill:#000000;fill-opacity:1"
       d="M 4 3 L 4 4 L 3 4 L 3 5 L 2 5 L 2 6 L 2 7 L 2 8 L 2 9 L 3 9 L 3 10 L 3 11 L 4 11 L 4 10 L 5 10 L 6 10 L 6 11 L 6 12 L 7 12 L 7 11 L 7 10 L 8 10 L 8 11 L 9 11 L 9 10 L 10 10 L 11 10 L 11 11 L 11 12 L 12 12 L 12 11 L 12 10 L 12 9 L 13 9 L 13 8 L 13 7 L 13 6 L 12 6 L 12 5 L 11 5 L 11 4 L 10 4 L 10 3 L 9 3 L 8 3 L 7 3 L 6 3 L 5 3 L 4 3 z M 12 12 L 12 13 L 13 13 L 13 12 L 12 12 z M 9 11 L 9 12 L 10 12 L 10 11 L 9 11 z M 7 12 L 7 13 L 8 13 L 8 12 L 7 12 z M 4 11 L 4 12 L 5 12 L 5 11 L 4 11 z M 3 6 L 4 6 L 4 7 L 5 7 L 6 7 L 6 8 L 5 8 L 4 8 L 4 7 L 3 7 L 3 6 z M 7 7 L 8 7 L 8 8 L 9 8 L 10 8 L 10 9 L 9 9 L 8 9 L 8 8 L 7 8 L 7 7 z "
       transform="translate(-3,2)" />
  </g>
</svg>
