<?xml version="1.0" encoding="UTF-8" standalone="no"?>
<svg
   xmlns:dc="http://purl.org/dc/elements/1.1/"
   xmlns:cc="http://creativecommons.org/ns#"
   xmlns:rdf="http://www.w3.org/1999/02/22-rdf-syntax-ns#"
   xmlns:svg="http://www.w3.org/2000/svg"
   xmlns="http://www.w3.org/2000/svg"
   version="1.1"
   id="svg2"
   viewBox="0 0 15.999999 15.999999"
   height="4.5155554mm"
   width="4.5155554mm">
  <defs
     id="defs4" />
  <metadata
     id="metadata7">
    <rdf:RDF>
      <cc:Work
         rdf:about="">
        <dc:format>image/svg+xml</dc:format>
        <dc:type
           rdf:resource="http://purl.org/dc/dcmitype/StillImage" />
        <dc:title></dc:title>
      </cc:Work>
    </rdf:RDF>
  </metadata>
  <g
     transform="translate(-863.42859,-904.36218)"
     id="layer1">
    <path
       id="path4157"
       transform="translate(863.42859,904.36218)"
       d="M 4 0 L 4 1 L 5 1 L 6 1 L 6 0 L 5 0 L 4 0 z M 6 1 L 6 2 L 7 2 L 7 1 L 6 1 z M 7 2 L 7 3 L 8 3 L 8 2 L 7 2 z M 8 3 L 8 4 L 7 4 L 6 4 L 6 5 L 6 6 L 5 6 L 4 6 L 4 7 L 3 7 L 3 8 L 3 9 L 2 9 L 2 10 L 2 11 L 3 11 L 3 12 L 3 13 L 4 13 L 4 14 L 5 14 L 5 15 L 6 15 L 7 15 L 7 16 L 8 16 L 9 16 L 10 16 L 10 15 L 11 15 L 12 15 L 12 14 L 13 14 L 13 13 L 14 13 L 14 12 L 14 11 L 15 11 L 15 10 L 15 9 L 14 9 L 14 8 L 14 7 L 13 7 L 13 6 L 12 6 L 11 6 L 11 5 L 11 4 L 10 4 L 9 4 L 9 3 L 8 3 z M 4 1 L 3 1 L 3 2 L 4 2 L 4 1 z M 1 1 L 1 2 L 2 2 L 2 1 L 1 1 z M 0 3 L 0 4 L 1 4 L 1 3 L 0 3 z M 3 3 L 3 4 L 4 4 L 4 3 L 3 3 z M 3 4 L 2 4 L 2 5 L 3 5 L 3 4 z M 6 8 L 7 8 L 7 9 L 6 9 L 6 8 z M 10 11 L 11 11 L 11 12 L 11 13 L 10 13 L 10 14 L 9 14 L 9 13 L 10 13 L 10 12 L 10 11 z "
       style="fill:#000000;fill-opacity:1" />
  </g>
</svg>
