<?xml version="1.0" encoding="UTF-8" standalone="no"?>
<svg
   xmlns:dc="http://purl.org/dc/elements/1.1/"
   xmlns:cc="http://creativecommons.org/ns#"
   xmlns:rdf="http://www.w3.org/1999/02/22-rdf-syntax-ns#"
   xmlns:svg="http://www.w3.org/2000/svg"
   xmlns="http://www.w3.org/2000/svg"
   version="1.1"
   id="svg2"
   viewBox="0 0 15.999999 15.999999"
   height="4.5155554mm"
   width="4.5155554mm">
  <defs
     id="defs4" />
  <metadata
     id="metadata7">
    <rdf:RDF>
      <cc:Work
         rdf:about="">
        <dc:format>image/svg+xml</dc:format>
        <dc:type
           rdf:resource="http://purl.org/dc/dcmitype/StillImage" />
        <dc:title></dc:title>
      </cc:Work>
    </rdf:RDF>
  </metadata>
  <g
     transform="translate(-882.45227,-923.73853)"
     id="layer1">
    <path
       id="path10491"
       transform="translate(882.45227,923.73853)"
       d="M 6 2 L 6 3 L 6 4 L 5 4 L 4 4 L 3 4 L 2 4 L 2 5 L 2 6 L 2 7 L 3 7 L 4 7 L 5 7 L 6 7 L 7 7 L 8 7 L 9 7 L 10 7 L 11 7 L 12 7 L 13 7 L 14 7 L 14 6 L 14 5 L 14 4 L 13 4 L 12 4 L 11 4 L 10 4 L 10 3 L 10 2 L 9 2 L 8 2 L 7 2 L 6 2 z M 7 3 L 8 3 L 9 3 L 9 4 L 8 4 L 7 4 L 7 3 z M 2 8 L 2 9 L 2 10 L 2 11 L 2 12 L 2 13 L 3 13 L 4 13 L 5 13 L 6 13 L 7 13 L 8 13 L 9 13 L 10 13 L 11 13 L 12 13 L 13 13 L 14 13 L 14 12 L 14 11 L 14 10 L 14 9 L 14 8 L 13 8 L 12 8 L 11 8 L 10 8 L 10 9 L 10 10 L 9 10 L 8 10 L 7 10 L 6 10 L 6 9 L 6 8 L 5 8 L 4 8 L 3 8 L 2 8 z M 7 8 L 7 9 L 8 9 L 9 9 L 9 8 L 8 8 L 7 8 z "
       style="fill:#000000;fill-opacity:1" />
  </g>
</svg>
