<?xml version="1.0" encoding="UTF-8" standalone="no"?>
<svg
   xmlns:dc="http://purl.org/dc/elements/1.1/"
   xmlns:cc="http://creativecommons.org/ns#"
   xmlns:rdf="http://www.w3.org/1999/02/22-rdf-syntax-ns#"
   xmlns:svg="http://www.w3.org/2000/svg"
   xmlns="http://www.w3.org/2000/svg"
   version="1.1"
   id="svg2"
   viewBox="0 0 15.999999 15.999999"
   height="4.5155554mm"
   width="4.5155554mm">
  <defs
     id="defs4" />
  <metadata
     id="metadata7">
    <rdf:RDF>
      <cc:Work
         rdf:about="">
        <dc:format>image/svg+xml</dc:format>
        <dc:type
           rdf:resource="http://purl.org/dc/dcmitype/StillImage" />
        <dc:title></dc:title>
      </cc:Work>
    </rdf:RDF>
  </metadata>
  <g
     transform="translate(-846.28571,-895.79077)"
     id="layer1">
    <path
       id="path4285"
       transform="translate(846.28571,895.79077)"
       d="M 4 4 L 4 5 L 3 5 L 3 6 L 3 7 L 3 8 L 3 9 L 4 9 L 4 10 L 4 11 L 4 12 L 4 13 L 4 14 L 5 14 L 6 14 L 7 14 L 8 14 L 9 14 L 10 14 L 11 14 L 11 13 L 12 13 L 12 12 L 13 12 L 13 11 L 14 11 L 14 10 L 14 9 L 13 9 L 13 10 L 12 10 L 12 11 L 11 11 L 11 12 L 10 12 L 10 11 L 10 10 L 10 9 L 9 9 L 9 8 L 8 8 L 8 7 L 8 6 L 8 5 L 8 4 L 7 4 L 7 5 L 6 5 L 5 5 L 5 4 L 4 4 z M 4 6 L 5 6 L 5 7 L 4 7 L 4 6 z M 6 6 L 7 6 L 7 7 L 6 7 L 6 6 z "
       style="fill:#000000;fill-opacity:1" />
  </g>
</svg>
