<?xml version="1.0" encoding="UTF-8" standalone="no"?>
<svg
   xmlns:dc="http://purl.org/dc/elements/1.1/"
   xmlns:cc="http://creativecommons.org/ns#"
   xmlns:rdf="http://www.w3.org/1999/02/22-rdf-syntax-ns#"
   xmlns:svg="http://www.w3.org/2000/svg"
   xmlns="http://www.w3.org/2000/svg"
   version="1.1"
   id="svg2"
   viewBox="0 0 15.999999 15.999999"
   height="4.5155554mm"
   width="4.5155554mm">
  <defs
     id="defs4" />
  <metadata
     id="metadata7">
    <rdf:RDF>
      <cc:Work
         rdf:about="">
        <dc:format>image/svg+xml</dc:format>
        <dc:type
           rdf:resource="http://purl.org/dc/dcmitype/StillImage" />
        <dc:title></dc:title>
      </cc:Work>
    </rdf:RDF>
  </metadata>
  <g
     transform="translate(-832,-887.21936)"
     id="layer1">
    <path
       id="path4191"
       transform="translate(832,887.21936)"
       d="M 5 1 L 5 2 L 5 3 L 5 4 L 4 4 L 3 4 L 3 5 L 3 6 L 3 7 L 3 8 L 3 9 L 3 10 L 3 11 L 3 12 L 3 13 L 3 14 L 3 15 L 4 15 L 5 15 L 6 15 L 7 15 L 8 15 L 9 15 L 10 15 L 11 15 L 12 15 L 13 15 L 13 14 L 13 13 L 13 12 L 13 11 L 13 10 L 13 9 L 13 8 L 13 7 L 13 6 L 13 5 L 13 4 L 12 4 L 11 4 L 11 3 L 11 2 L 11 1 L 10 1 L 9 1 L 8 1 L 7 1 L 6 1 L 5 1 z M 6 2 L 7 2 L 8 2 L 9 2 L 10 2 L 10 3 L 10 4 L 9 4 L 8 4 L 7 4 L 6 4 L 6 3 L 6 2 z M 4 5 L 5 5 L 6 5 L 7 5 L 8 5 L 9 5 L 10 5 L 11 5 L 12 5 L 12 6 L 12 7 L 12 8 L 12 9 L 12 10 L 12 11 L 12 12 L 12 13 L 12 14 L 11 14 L 10 14 L 9 14 L 8 14 L 7 14 L 6 14 L 5 14 L 4 14 L 4 13 L 4 12 L 4 11 L 4 10 L 4 9 L 4 8 L 4 7 L 4 6 L 4 5 z M 8 7 L 8 8 L 9 8 L 9 7 L 8 7 z M 8 8 L 7 8 L 7 9 L 8 9 L 8 8 z M 8 9 L 8 10 L 9 10 L 9 9 L 8 9 z M 8 10 L 7 10 L 7 11 L 8 11 L 8 10 z "
       style="fill:#000000;fill-opacity:1" />
  </g>
</svg>
