<?xml version="1.0" encoding="UTF-8" standalone="no"?>
<svg
   xmlns:dc="http://purl.org/dc/elements/1.1/"
   xmlns:cc="http://creativecommons.org/ns#"
   xmlns:rdf="http://www.w3.org/1999/02/22-rdf-syntax-ns#"
   xmlns:svg="http://www.w3.org/2000/svg"
   xmlns="http://www.w3.org/2000/svg"
   width="4.5155602mm"
   height="4.5155602mm"
   viewBox="0 0 16.000015 16.000017"
   version="1.1"
   id="svg8">
  <defs
     id="defs2" />
  <metadata
     id="metadata5">
    <rdf:RDF>
      <cc:Work
         rdf:about="">
        <dc:format>image/svg+xml</dc:format>
        <dc:type
           rdf:resource="http://purl.org/dc/dcmitype/StillImage" />
        <dc:title></dc:title>
      </cc:Work>
    </rdf:RDF>
  </metadata>
  <g
     id="layer1"
     transform="translate(-238.2762,-244.9905)">
    <path
       style="fill:#000000;fill-opacity:1;stroke-width:3.77952766"
       d="m 18.898438,3.7792969 v 3.7792969 3.7792972 3.779297 h -3.78125 -3.779297 v 3.78125 3.779296 3.779297 3.779297 3.779297 3.779297 3.779297 3.779297 3.78125 3.779296 3.779297 h 3.779297 3.78125 3.779296 3.779297 3.779297 3.779297 3.779297 3.779297 3.779297 3.78125 v -3.779297 -3.779296 -3.78125 -3.779297 -3.779297 -3.779297 -3.779297 -3.779297 -3.779297 -3.779296 -3.78125 h -3.78125 -3.779297 V 11.337891 7.5585938 3.7792969 h -3.779297 -3.779297 -3.779297 -3.779297 -3.779297 z m 3.779296,3.7792969 h 3.779297 3.779297 3.779297 3.779297 v 3.7792972 3.779297 h -3.779297 -3.779297 -3.779297 -3.779297 v -3.779297 z m 7.558594,18.8984372 h 3.779297 v 3.779297 h -3.779297 v 3.779297 h 3.779297 v 3.779297 h -3.779297 v 3.779297 h -3.779297 v -3.779297 h 3.779297 v -3.779297 h -3.779297 v -3.779297 h 3.779297 z"
       transform="matrix(0.26458333,0,0,0.26458333,238.27618,244.99048)"
       id="path868" />
  </g>
</svg>
