<?xml version="1.0" encoding="UTF-8" standalone="no"?>
<svg
   xmlns:dc="http://purl.org/dc/elements/1.1/"
   xmlns:cc="http://creativecommons.org/ns#"
   xmlns:rdf="http://www.w3.org/1999/02/22-rdf-syntax-ns#"
   xmlns:svg="http://www.w3.org/2000/svg"
   xmlns="http://www.w3.org/2000/svg"
   version="1.1"
   id="svg2"
   viewBox="0 0 15.999999 15.999999"
   height="4.5155554mm"
   width="4.5155554mm">
  <defs
     id="defs4" />
  <metadata
     id="metadata7">
    <rdf:RDF>
      <cc:Work
         rdf:about="">
        <dc:format>image/svg+xml</dc:format>
        <dc:type
           rdf:resource="http://purl.org/dc/dcmitype/StillImage" />
        <dc:title></dc:title>
      </cc:Work>
    </rdf:RDF>
  </metadata>
  <g
     transform="translate(-847.52997,-907.52887)"
     id="layer1">
    <path
       id="path11847"
       transform="translate(847.52997,907.52887)"
       d="M 7 1 L 7 2 L 7 3 L 8 3 L 8 2 L 8 1 L 7 1 z M 8 3 L 8 4 L 8 5 L 9 5 L 9 4 L 9 3 L 8 3 z M 8 5 L 7 5 L 7 6 L 7 7 L 8 7 L 8 6 L 8 5 z M 4 2 L 4 3 L 4 4 L 5 4 L 5 3 L 5 2 L 4 2 z M 5 4 L 5 5 L 5 6 L 6 6 L 6 5 L 6 4 L 5 4 z M 5 6 L 4 6 L 4 7 L 4 8 L 5 8 L 5 7 L 5 6 z M 10 2 L 10 3 L 10 4 L 11 4 L 11 3 L 11 2 L 10 2 z M 11 4 L 11 5 L 11 6 L 12 6 L 12 5 L 12 4 L 11 4 z M 11 6 L 10 6 L 10 7 L 10 8 L 11 8 L 11 7 L 11 6 z M 3 9 L 3 10 L 3 11 L 3 12 L 3 13 L 3 14 L 4 14 L 4 15 L 5 15 L 5 16 L 6 16 L 7 16 L 8 16 L 9 16 L 10 16 L 10 15 L 11 15 L 11 14 L 12 14 L 13 14 L 14 14 L 14 13 L 15 13 L 15 12 L 15 11 L 15 10 L 14 10 L 14 9 L 13 9 L 12 9 L 11 9 L 10 9 L 9 9 L 8 9 L 7 9 L 6 9 L 5 9 L 4 9 L 3 9 z M 5 10 L 6 10 L 6 11 L 6 12 L 6 13 L 7 13 L 7 14 L 6 14 L 6 13 L 5 13 L 5 12 L 5 11 L 5 10 z M 12 11 L 13 11 L 13 12 L 13 13 L 12 13 L 12 12 L 12 11 z "
       style="fill:#000000;fill-opacity:1" />
  </g>
</svg>
