<?xml version="1.0" encoding="UTF-8" standalone="no"?>
<svg
   xmlns:dc="http://purl.org/dc/elements/1.1/"
   xmlns:cc="http://creativecommons.org/ns#"
   xmlns:rdf="http://www.w3.org/1999/02/22-rdf-syntax-ns#"
   xmlns:svg="http://www.w3.org/2000/svg"
   xmlns="http://www.w3.org/2000/svg"
   xmlns:sodipodi="http://sodipodi.sourceforge.net/DTD/sodipodi-0.dtd"
   xmlns:inkscape="http://www.inkscape.org/namespaces/inkscape"
   width="4.2333298mm"
   height="4.2333331mm"
   viewBox="0 0 4.2333298 4.2333331"
   version="1.1"
   id="svg8"
   inkscape:version="1.0.2 (e86c870879, 2021-01-15, custom)"
   sodipodi:docname="crab.svg">
  <defs
     id="defs2" />
  <sodipodi:namedview
     id="base"
     pagecolor="#ffffff"
     bordercolor="#666666"
     borderopacity="1.0"
     inkscape:pageopacity="0.0"
     inkscape:pageshadow="2"
     inkscape:zoom="44.8"
     inkscape:cx="12.908112"
     inkscape:cy="8.3568997"
     inkscape:document-units="mm"
     inkscape:current-layer="layer1"
     inkscape:document-rotation="0"
     showgrid="false"
     inkscape:window-width="1920"
     inkscape:window-height="1017"
     inkscape:window-x="-8"
     inkscape:window-y="-8"
     inkscape:window-maximized="1" />
  <metadata
     id="metadata5">
    <rdf:RDF>
      <cc:Work
         rdf:about="">
        <dc:format>image/svg+xml</dc:format>
        <dc:type
           rdf:resource="http://purl.org/dc/dcmitype/StillImage" />
        <dc:title></dc:title>
      </cc:Work>
    </rdf:RDF>
  </metadata>
  <g
     inkscape:label="Calque 1"
     inkscape:groupmode="layer"
     id="layer1"
     transform="translate(107.79881,-84.817856)">
    <path
       id="path466"
       style="fill:#000000;fill-opacity:1;stroke-width:0.999999"
       d="M 2 1 L 2 2 L 1 2 L 1 3 L 0 3 L 0 4 L 0 5 L 0 6 L 1 6 L 1 7 L 2 7 L 2 8 L 3 8 L 4 8 L 4 7 L 5 7 L 5 6 L 5 5 L 5 4 L 4 4 L 4 5 L 3 5 L 2 5 L 2 4 L 2 3 L 3 3 L 3 2 L 3 1 L 2 1 z M 5 7 L 5 8 L 4 8 L 4 9 L 4 10 L 3 10 L 2 10 L 2 11 L 1 11 L 1 12 L 1 13 L 1 14 L 2 14 L 2 13 L 2 12 L 3 12 L 3 11 L 4 11 L 4 12 L 3 12 L 3 13 L 4 13 L 4 14 L 5 14 L 6 14 L 6 13 L 5 13 L 5 12 L 6 12 L 7 12 L 8 12 L 9 12 L 9 13 L 8 13 L 8 14 L 9 14 L 10 14 L 10 13 L 11 13 L 11 12 L 12 12 L 12 13 L 12 14 L 13 14 L 13 13 L 13 12 L 13 11 L 12 11 L 12 10 L 13 10 L 13 11 L 14 11 L 14 12 L 15 12 L 15 11 L 16 11 L 16 10 L 16 9 L 16 8 L 15 8 L 15 7 L 14 7 L 13 7 L 13 8 L 12 8 L 12 9 L 11 9 L 11 8 L 10 8 L 9 8 L 9 7 L 8 7 L 7 7 L 6 7 L 5 7 z M 6 9 L 7 9 L 7 10 L 6 10 L 6 9 z M 9 10 L 10 10 L 10 11 L 9 11 L 9 10 z "
       transform="matrix(0.26458333,0,0,0.26458333,-107.79881,84.817856)" />
  </g>
</svg>
