<?xml version="1.0" encoding="UTF-8" standalone="no"?>
<svg
   xmlns:dc="http://purl.org/dc/elements/1.1/"
   xmlns:cc="http://creativecommons.org/ns#"
   xmlns:rdf="http://www.w3.org/1999/02/22-rdf-syntax-ns#"
   xmlns:svg="http://www.w3.org/2000/svg"
   xmlns="http://www.w3.org/2000/svg"
   version="1.1"
   id="svg2"
   viewBox="0 0 15.999999 15.999999"
   height="4.5155554mm"
   width="4.5155554mm">
  <defs
     id="defs4" />
  <metadata
     id="metadata7">
    <rdf:RDF>
      <cc:Work
         rdf:about="">
        <dc:format>image/svg+xml</dc:format>
        <dc:type
           rdf:resource="http://purl.org/dc/dcmitype/StillImage" />
        <dc:title></dc:title>
      </cc:Work>
    </rdf:RDF>
  </metadata>
  <g
     transform="translate(-985.79498,-926.95398)"
     id="layer1">
    <path
       id="path7071"
       transform="translate(985.79498,926.95398)"
       d="M 7 0 L 7 1 L 7 2 L 7 3 L 6 3 L 5 3 L 4 3 L 3 3 L 3 4 L 4 4 L 5 4 L 6 4 L 7 4 L 8 4 L 9 4 L 9 5 L 10 5 L 10 4 L 10 3 L 9 3 L 8 3 L 8 2 L 8 1 L 9 1 L 10 1 L 11 1 L 12 1 L 13 1 L 14 1 L 15 1 L 15 2 L 15 3 L 15 4 L 15 5 L 15 6 L 15 7 L 15 8 L 15 9 L 15 10 L 15 11 L 15 12 L 15 13 L 15 14 L 14 14 L 13 14 L 12 14 L 11 14 L 10 14 L 9 14 L 8 14 L 8 13 L 8 12 L 8 11 L 8 10 L 8 9 L 8 8 L 8 7 L 8 6 L 9 6 L 9 5 L 8 5 L 7 5 L 6 5 L 6 6 L 7 6 L 7 7 L 7 8 L 7 9 L 7 10 L 7 11 L 6 11 L 5 11 L 4 11 L 3 11 L 3 12 L 4 12 L 5 12 L 6 12 L 7 12 L 7 13 L 7 14 L 7 15 L 8 15 L 9 15 L 10 15 L 11 15 L 12 15 L 13 15 L 14 15 L 15 15 L 16 15 L 16 14 L 16 13 L 16 12 L 16 11 L 16 10 L 16 9 L 16 8 L 16 7 L 16 6 L 16 5 L 16 4 L 16 3 L 16 2 L 16 1 L 16 0 L 15 0 L 14 0 L 13 0 L 12 0 L 11 0 L 10 0 L 9 0 L 8 0 L 7 0 z M 3 11 L 3 10 L 2 10 L 1 10 L 1 9 L 1 8 L 1 7 L 1 6 L 2 6 L 2 5 L 1 5 L 0 5 L 0 6 L 0 7 L 0 8 L 0 9 L 0 10 L 0 11 L 1 11 L 2 11 L 3 11 z M 2 5 L 3 5 L 3 4 L 2 4 L 2 5 z M 10 6 L 10 7 L 10 8 L 10 9 L 11 9 L 11 8 L 11 7 L 11 6 L 10 6 z M 12 6 L 12 7 L 12 8 L 12 9 L 13 9 L 13 8 L 13 7 L 13 6 L 12 6 z M 12 11 L 12 12 L 12 13 L 13 13 L 14 13 L 14 12 L 14 11 L 13 11 L 12 11 z "
       style="fill:#000000;fill-opacity:1" />
  </g>
</svg>
