<?xml version="1.0" encoding="UTF-8" standalone="no"?>
<svg
   xmlns:dc="http://purl.org/dc/elements/1.1/"
   xmlns:cc="http://creativecommons.org/ns#"
   xmlns:rdf="http://www.w3.org/1999/02/22-rdf-syntax-ns#"
   xmlns:svg="http://www.w3.org/2000/svg"
   xmlns="http://www.w3.org/2000/svg"
   xmlns:sodipodi="http://sodipodi.sourceforge.net/DTD/sodipodi-0.dtd"
   xmlns:inkscape="http://www.inkscape.org/namespaces/inkscape"
   width="4.2333331mm"
   height="4.2333331mm"
   viewBox="0 0 4.2333331 4.2333331"
   version="1.1"
   id="svg8"
   inkscape:version="1.0.2 (e86c870879, 2021-01-15, custom)"
   sodipodi:docname="desktop.svg">
  <defs
     id="defs2" />
  <sodipodi:namedview
     id="base"
     pagecolor="#ffffff"
     bordercolor="#666666"
     borderopacity="1.0"
     inkscape:pageopacity="0.0"
     inkscape:pageshadow="2"
     inkscape:zoom="15.839192"
     inkscape:cx="14.479113"
     inkscape:cy="3.7794812"
     inkscape:document-units="mm"
     inkscape:current-layer="layer1"
     inkscape:document-rotation="0"
     showgrid="false"
     inkscape:window-width="1920"
     inkscape:window-height="1017"
     inkscape:window-x="-8"
     inkscape:window-y="-8"
     inkscape:window-maximized="1" />
  <metadata
     id="metadata5">
    <rdf:RDF>
      <cc:Work
         rdf:about="">
        <dc:format>image/svg+xml</dc:format>
        <dc:type
           rdf:resource="http://purl.org/dc/dcmitype/StillImage" />
        <dc:title></dc:title>
      </cc:Work>
    </rdf:RDF>
  </metadata>
  <g
     inkscape:label="Calque 1"
     inkscape:groupmode="layer"
     id="layer1"
     transform="translate(-41.269687,-43.908649)">
    <path
       id="path464"
       style="fill:#000000;fill-opacity:1;stroke-width:0.999999"
       d="M 2 2 L 2 3 L 2 4 L 2 5 L 2 6 L 2 7 L 2 8 L 2 9 L 2 10 L 2 11 L 3 11 L 4 11 L 5 11 L 6 11 L 7 11 L 7 12 L 6 12 L 5 12 L 4 12 L 4 13 L 4 14 L 5 14 L 6 14 L 7 14 L 8 14 L 9 14 L 10 14 L 11 14 L 12 14 L 12 13 L 12 12 L 11 12 L 10 12 L 9 12 L 9 11 L 10 11 L 11 11 L 12 11 L 13 11 L 14 11 L 14 10 L 14 9 L 14 8 L 14 7 L 14 6 L 14 5 L 14 4 L 14 3 L 14 2 L 13 2 L 12 2 L 11 2 L 10 2 L 9 2 L 8 2 L 7 2 L 6 2 L 5 2 L 4 2 L 3 2 L 2 2 z M 3 3 L 4 3 L 5 3 L 6 3 L 7 3 L 8 3 L 9 3 L 10 3 L 11 3 L 12 3 L 13 3 L 13 4 L 13 5 L 13 6 L 13 7 L 13 8 L 13 9 L 13 10 L 12 10 L 11 10 L 10 10 L 9 10 L 8 10 L 7 10 L 6 10 L 5 10 L 4 10 L 3 10 L 3 9 L 3 8 L 3 7 L 3 6 L 3 5 L 3 4 L 3 3 z "
       transform="matrix(0.26458333,0,0,0.26458333,41.269687,43.908649)" />
  </g>
</svg>
