<?xml version="1.0" encoding="UTF-8" standalone="no"?>
<svg
   xmlns:dc="http://purl.org/dc/elements/1.1/"
   xmlns:cc="http://creativecommons.org/ns#"
   xmlns:rdf="http://www.w3.org/1999/02/22-rdf-syntax-ns#"
   xmlns:svg="http://www.w3.org/2000/svg"
   xmlns="http://www.w3.org/2000/svg"
   version="1.1"
   id="svg2"
   viewBox="0 0 15.999999 15.999999"
   height="4.5155554mm"
   width="4.5155554mm">
  <defs
     id="defs4" />
  <metadata
     id="metadata7">
    <rdf:RDF>
      <cc:Work
         rdf:about="">
        <dc:format>image/svg+xml</dc:format>
        <dc:type
           rdf:resource="http://purl.org/dc/dcmitype/StillImage" />
        <dc:title></dc:title>
      </cc:Work>
    </rdf:RDF>
  </metadata>
  <g
     transform="translate(-873.95538,-900.53186)"
     id="layer1">
    <path
       id="path6169"
       transform="translate(873.95538,900.53186)"
       d="M 5 4 L 5 5 L 6 5 L 7 5 L 8 5 L 8 4 L 7 4 L 6 4 L 5 4 z M 8 5 L 8 6 L 8 7 L 8 8 L 9 8 L 9 7 L 9 6 L 9 5 L 8 5 z M 9 8 L 9 9 L 10 9 L 11 9 L 12 9 L 12 8 L 11 8 L 10 8 L 9 8 z M 12 8 L 13 8 L 13 9 L 13 10 L 13 11 L 13 12 L 14 12 L 14 11 L 14 10 L 14 9 L 14 8 L 14 7 L 13 7 L 12 7 L 12 8 z M 13 12 L 12 12 L 11 12 L 10 12 L 9 12 L 8 12 L 7 12 L 6 12 L 5 12 L 4 12 L 4 13 L 5 13 L 6 13 L 7 13 L 8 13 L 9 13 L 10 13 L 11 13 L 12 13 L 13 13 L 13 12 z M 4 12 L 4 11 L 4 10 L 4 9 L 3 9 L 3 10 L 3 11 L 3 12 L 4 12 z M 4 9 L 5 9 L 5 8 L 5 7 L 4 7 L 4 8 L 4 9 z M 4 7 L 4 6 L 3 6 L 2 6 L 2 7 L 3 7 L 4 7 z M 4 6 L 5 6 L 5 5 L 4 5 L 4 6 z M 6 6 L 6 7 L 7 7 L 7 6 L 6 6 z "
       style="fill:#000000;fill-opacity:1" />
  </g>
</svg>
