<?xml version="1.0" encoding="UTF-8" standalone="no"?>
<svg
   xmlns:dc="http://purl.org/dc/elements/1.1/"
   xmlns:cc="http://creativecommons.org/ns#"
   xmlns:rdf="http://www.w3.org/1999/02/22-rdf-syntax-ns#"
   xmlns:svg="http://www.w3.org/2000/svg"
   xmlns="http://www.w3.org/2000/svg"
   version="1.1"
   id="svg2"
   viewBox="0 0 15.999999 15.999999"
   height="4.5155554mm"
   width="4.5155554mm">
  <defs
     id="defs4" />
  <metadata
     id="metadata7">
    <rdf:RDF>
      <cc:Work
         rdf:about="">
        <dc:format>image/svg+xml</dc:format>
        <dc:type
           rdf:resource="http://purl.org/dc/dcmitype/StillImage" />
        <dc:title></dc:title>
      </cc:Work>
    </rdf:RDF>
  </metadata>
  <g
     transform="translate(-809.14288,-915.79077)"
     id="layer1">
    <path
       id="path4235"
       transform="translate(809.14288,915.79077)"
       d="M 11 2 L 11 3 L 10 3 L 9 3 L 9 4 L 8 4 L 8 5 L 8 6 L 8 7 L 8 8 L 8 9 L 7 9 L 7 8 L 7 7 L 7 6 L 6 6 L 6 7 L 5 7 L 5 8 L 4 8 L 4 9 L 4 10 L 4 11 L 4 12 L 4 13 L 5 13 L 6 13 L 7 13 L 8 13 L 9 13 L 9 12 L 10 12 L 11 12 L 11 11 L 12 11 L 12 10 L 11 10 L 10 10 L 10 9 L 11 9 L 12 9 L 13 9 L 14 9 L 14 8 L 13 8 L 12 8 L 11 8 L 11 7 L 12 7 L 13 7 L 13 6 L 14 6 L 15 6 L 15 5 L 15 4 L 15 3 L 15 2 L 14 2 L 13 2 L 12 2 L 11 2 z M 14 8 L 15 8 L 15 7 L 14 7 L 14 8 z M 4 13 L 3 13 L 3 14 L 4 14 L 4 13 z M 3 14 L 2 14 L 2 15 L 3 15 L 3 14 z "
       style="fill:#000000;fill-opacity:1" />
  </g>
</svg>
