<?xml version="1.0" encoding="UTF-8" standalone="no"?>
<svg
   xmlns:dc="http://purl.org/dc/elements/1.1/"
   xmlns:cc="http://creativecommons.org/ns#"
   xmlns:rdf="http://www.w3.org/1999/02/22-rdf-syntax-ns#"
   xmlns:svg="http://www.w3.org/2000/svg"
   xmlns="http://www.w3.org/2000/svg"
   version="1.1"
   id="svg2"
   viewBox="0 0 15.999999 15.999999"
   height="4.5155554mm"
   width="4.5155554mm">
  <defs
     id="defs4" />
  <metadata
     id="metadata7">
    <rdf:RDF>
      <cc:Work
         rdf:about="">
        <dc:format>image/svg+xml</dc:format>
        <dc:type
           rdf:resource="http://purl.org/dc/dcmitype/StillImage" />
        <dc:title></dc:title>
      </cc:Work>
    </rdf:RDF>
  </metadata>
  <g
     transform="translate(-904.50897,-907.61218)"
     id="layer1">
    <path
       id="path10728"
       transform="translate(904.50897,907.61218)"
       d="M 1 0 L 1 1 L 1 2 L 1 3 L 1 4 L 1 5 L 1 6 L 1 7 L 1 8 L 1 9 L 1 10 L 1 11 L 1 12 L 1 13 L 1 14 L 1 15 L 1 16 L 2 16 L 3 16 L 4 16 L 5 16 L 6 16 L 7 16 L 8 16 L 9 16 L 10 16 L 11 16 L 12 16 L 13 16 L 14 16 L 15 16 L 15 15 L 15 14 L 15 13 L 15 12 L 15 11 L 15 10 L 15 9 L 15 8 L 15 7 L 15 6 L 15 5 L 14 5 L 13 5 L 12 5 L 11 5 L 10 5 L 10 4 L 10 3 L 10 2 L 10 1 L 10 0 L 9 0 L 8 0 L 7 0 L 6 0 L 5 0 L 4 0 L 3 0 L 2 0 L 1 0 z M 11 1 L 11 2 L 11 3 L 11 4 L 12 4 L 13 4 L 14 4 L 14 3 L 13 3 L 13 2 L 12 2 L 12 1 L 11 1 z M 9 8 L 10 8 L 10 9 L 10 10 L 11 10 L 11 9 L 12 9 L 12 8 L 13 8 L 13 9 L 12 9 L 12 10 L 13 10 L 13 11 L 12 11 L 12 12 L 12 13 L 11 13 L 11 12 L 11 11 L 10 11 L 10 12 L 10 13 L 9 13 L 8 13 L 7 13 L 7 12 L 6 12 L 5 12 L 5 13 L 4 13 L 3 13 L 3 14 L 3 15 L 2 15 L 2 14 L 2 13 L 2 12 L 2 11 L 2 10 L 2 9 L 3 9 L 4 9 L 5 9 L 5 10 L 6 10 L 7 10 L 7 9 L 8 9 L 9 9 L 9 8 z M 7 10 L 7 11 L 7 12 L 8 12 L 9 12 L 9 11 L 9 10 L 8 10 L 7 10 z M 5 10 L 4 10 L 3 10 L 3 11 L 3 12 L 4 12 L 5 12 L 5 11 L 5 10 z "
       style="fill:#000000;fill-opacity:1" />
  </g>
</svg>
