<?xml version="1.0" encoding="UTF-8" standalone="no"?>
<svg
   xmlns:dc="http://purl.org/dc/elements/1.1/"
   xmlns:cc="http://creativecommons.org/ns#"
   xmlns:rdf="http://www.w3.org/1999/02/22-rdf-syntax-ns#"
   xmlns:svg="http://www.w3.org/2000/svg"
   xmlns="http://www.w3.org/2000/svg"
   version="1.1"
   id="svg2"
   viewBox="0 0 15.999999 15.999999"
   height="4.5155554mm"
   width="4.5155554mm">
  <defs
     id="defs4" />
  <metadata
     id="metadata7">
    <rdf:RDF>
      <cc:Work
         rdf:about="">
        <dc:format>image/svg+xml</dc:format>
        <dc:type
           rdf:resource="http://purl.org/dc/dcmitype/StillImage" />
        <dc:title></dc:title>
      </cc:Work>
    </rdf:RDF>
  </metadata>
  <g
     transform="translate(-792,-878.64795)"
     id="layer1">
    <path
       id="path4195"
       transform="translate(792,878.64795)"
       d="M 7 1 L 7 2 L 8 2 L 9 2 L 9 1 L 8 1 L 7 1 z M 9 2 L 9 3 L 9 4 L 9 5 L 9 6 L 8 6 L 7 6 L 7 5 L 7 4 L 7 3 L 7 2 L 6 2 L 5 2 L 4 2 L 4 3 L 5 3 L 6 3 L 6 4 L 6 5 L 6 6 L 5 6 L 4 6 L 4 5 L 4 4 L 4 3 L 3 3 L 3 4 L 3 5 L 3 6 L 3 7 L 3 8 L 4 8 L 4 7 L 5 7 L 6 7 L 7 7 L 8 7 L 9 7 L 9 8 L 9 9 L 10 9 L 10 8 L 11 8 L 12 8 L 12 9 L 13 9 L 14 9 L 14 10 L 14 11 L 14 12 L 15 12 L 15 11 L 15 10 L 15 9 L 15 8 L 15 7 L 15 6 L 15 5 L 15 4 L 14 4 L 14 5 L 14 6 L 14 7 L 14 8 L 13 8 L 13 7 L 13 6 L 13 5 L 13 4 L 14 4 L 14 3 L 13 3 L 12 3 L 12 4 L 12 5 L 12 6 L 12 7 L 11 7 L 10 7 L 10 6 L 10 5 L 10 4 L 10 3 L 11 3 L 12 3 L 12 2 L 11 2 L 10 2 L 9 2 z M 14 12 L 13 12 L 12 12 L 12 13 L 12 14 L 12 15 L 11 15 L 10 15 L 9 15 L 8 15 L 7 15 L 6 15 L 6 14 L 6 13 L 5 13 L 5 14 L 5 15 L 5 16 L 6 16 L 7 16 L 8 16 L 9 16 L 10 16 L 11 16 L 12 16 L 13 16 L 13 15 L 13 14 L 13 13 L 14 13 L 14 12 z M 5 13 L 5 12 L 4 12 L 4 13 L 5 13 z M 4 12 L 4 11 L 3 11 L 3 12 L 4 12 z M 3 11 L 3 10 L 3 9 L 3 8 L 2 8 L 2 9 L 2 10 L 2 11 L 3 11 z M 9 9 L 8 9 L 7 9 L 6 9 L 6 10 L 7 10 L 8 10 L 9 10 L 9 9 z "
       style="fill:#000000;fill-opacity:1" />
  </g>
</svg>
