<?xml version="1.0" encoding="UTF-8" standalone="no"?>
<svg
   xmlns:dc="http://purl.org/dc/elements/1.1/"
   xmlns:cc="http://creativecommons.org/ns#"
   xmlns:rdf="http://www.w3.org/1999/02/22-rdf-syntax-ns#"
   xmlns:svg="http://www.w3.org/2000/svg"
   xmlns="http://www.w3.org/2000/svg"
   xmlns:sodipodi="http://sodipodi.sourceforge.net/DTD/sodipodi-0.dtd"
   xmlns:inkscape="http://www.inkscape.org/namespaces/inkscape"
   width="4.2333331mm"
   height="4.2333331mm"
   viewBox="0 0 4.2333331 4.2333331"
   version="1.1"
   id="svg8"
   inkscape:version="1.0.2 (e86c870879, 2021-01-15, custom)"
   sodipodi:docname="heart-o.svg">
  <defs
     id="defs2" />
  <sodipodi:namedview
     id="base"
     pagecolor="#ffffff"
     bordercolor="#666666"
     borderopacity="1.0"
     inkscape:pageopacity="0.0"
     inkscape:pageshadow="2"
     inkscape:zoom="11.2"
     inkscape:cx="34.10637"
     inkscape:cy="13.754632"
     inkscape:document-units="mm"
     inkscape:current-layer="layer1"
     inkscape:document-rotation="0"
     showgrid="false"
     inkscape:window-width="1920"
     inkscape:window-height="1017"
     inkscape:window-x="-8"
     inkscape:window-y="-8"
     inkscape:window-maximized="1" />
  <metadata
     id="metadata5">
    <rdf:RDF>
      <cc:Work
         rdf:about="">
        <dc:format>image/svg+xml</dc:format>
        <dc:type
           rdf:resource="http://purl.org/dc/dcmitype/StillImage" />
        <dc:title></dc:title>
      </cc:Work>
    </rdf:RDF>
  </metadata>
  <g
     inkscape:label="Calque 1"
     inkscape:groupmode="layer"
     id="layer1"
     transform="translate(57.230321,-65.824552)">
    <path
       id="path394"
       style="fill:#000000;fill-opacity:1;stroke-width:0.999999"
       d="M 5 4 L 5 5 L 6 5 L 7 5 L 8 5 L 8 4 L 7 4 L 6 4 L 5 4 z M 8 5 L 8 6 L 9 6 L 9 5 L 8 5 z M 9 5 L 10 5 L 11 5 L 12 5 L 12 4 L 11 4 L 10 4 L 9 4 L 9 5 z M 12 5 L 12 6 L 12 7 L 12 8 L 13 8 L 13 7 L 13 6 L 13 5 L 12 5 z M 12 8 L 11 8 L 11 9 L 12 9 L 12 8 z M 11 9 L 10 9 L 10 10 L 11 10 L 11 9 z M 10 10 L 9 10 L 9 11 L 10 11 L 10 10 z M 9 11 L 8 11 L 8 12 L 9 12 L 9 11 z M 8 11 L 8 10 L 7 10 L 7 11 L 8 11 z M 7 10 L 7 9 L 6 9 L 6 10 L 7 10 z M 6 9 L 6 8 L 5 8 L 5 9 L 6 9 z M 5 8 L 5 7 L 5 6 L 5 5 L 4 5 L 4 6 L 4 7 L 4 8 L 5 8 z "
       transform="matrix(0.26458333,0,0,0.26458333,-57.230321,65.824552)" />
  </g>
</svg>
