<?xml version="1.0" encoding="UTF-8" standalone="no"?>
<svg
   xmlns:dc="http://purl.org/dc/elements/1.1/"
   xmlns:cc="http://creativecommons.org/ns#"
   xmlns:rdf="http://www.w3.org/1999/02/22-rdf-syntax-ns#"
   xmlns:svg="http://www.w3.org/2000/svg"
   xmlns="http://www.w3.org/2000/svg"
   version="1.1"
   id="svg2"
   viewBox="0 0 15.999999 15.999999"
   height="4.5155554mm"
   width="4.5155554mm">
  <defs
     id="defs4" />
  <metadata
     id="metadata7">
    <rdf:RDF>
      <cc:Work
         rdf:about="">
        <dc:format>image/svg+xml</dc:format>
        <dc:type
           rdf:resource="http://purl.org/dc/dcmitype/StillImage" />
        <dc:title></dc:title>
      </cc:Work>
    </rdf:RDF>
  </metadata>
  <g
     transform="translate(-857.88959,-904.53296)"
     id="layer1">
    <path
       id="path5752"
       transform="translate(857.88959,904.53296)"
       d="M 3 1 L 3 2 L 4 2 L 4 3 L 4 4 L 4 5 L 5 5 L 5 4 L 5 3 L 5 2 L 6 2 L 7 2 L 8 2 L 9 2 L 10 2 L 11 2 L 12 2 L 12 3 L 12 4 L 12 5 L 13 5 L 13 4 L 13 3 L 13 2 L 14 2 L 14 1 L 13 1 L 12 1 L 11 1 L 10 1 L 9 1 L 8 1 L 7 1 L 6 1 L 5 1 L 4 1 L 3 1 z M 12 5 L 11 5 L 11 6 L 12 6 L 12 5 z M 11 6 L 10 6 L 10 7 L 11 7 L 11 6 z M 10 7 L 9 7 L 9 8 L 9 9 L 10 9 L 10 8 L 10 7 z M 10 9 L 10 10 L 11 10 L 11 9 L 10 9 z M 11 10 L 11 11 L 12 11 L 12 10 L 11 10 z M 12 11 L 12 12 L 12 13 L 12 14 L 11 14 L 11 13 L 10 13 L 10 12 L 9 12 L 9 11 L 8 11 L 8 12 L 7 12 L 7 13 L 6 13 L 6 14 L 5 14 L 5 13 L 5 12 L 5 11 L 4 11 L 4 12 L 4 13 L 4 14 L 3 14 L 3 15 L 4 15 L 5 15 L 6 15 L 7 15 L 8 15 L 9 15 L 10 15 L 11 15 L 12 15 L 13 15 L 14 15 L 14 14 L 13 14 L 13 13 L 13 12 L 13 11 L 12 11 z M 5 11 L 6 11 L 6 10 L 5 10 L 5 11 z M 6 10 L 7 10 L 7 9 L 6 9 L 6 10 z M 7 9 L 8 9 L 8 8 L 8 7 L 7 7 L 7 8 L 7 9 z M 7 7 L 7 6 L 6 6 L 6 7 L 7 7 z M 6 6 L 6 5 L 5 5 L 5 6 L 6 6 z M 7 6 L 8 6 L 8 7 L 9 7 L 9 6 L 10 6 L 10 5 L 9 5 L 8 5 L 7 5 L 7 6 z "
       style="fill:#000000;fill-opacity:1" />
  </g>
</svg>
