<?xml version="1.0" encoding="UTF-8" standalone="no"?>
<svg
   xmlns:dc="http://purl.org/dc/elements/1.1/"
   xmlns:cc="http://creativecommons.org/ns#"
   xmlns:rdf="http://www.w3.org/1999/02/22-rdf-syntax-ns#"
   xmlns:svg="http://www.w3.org/2000/svg"
   xmlns="http://www.w3.org/2000/svg"
   version="1.1"
   id="svg2"
   viewBox="0 0 15.999999 15.999999"
   height="4.5155554mm"
   width="4.5155554mm">
  <defs
     id="defs4" />
  <metadata
     id="metadata7">
    <rdf:RDF>
      <cc:Work
         rdf:about="">
        <dc:format>image/svg+xml</dc:format>
        <dc:type
           rdf:resource="http://purl.org/dc/dcmitype/StillImage" />
        <dc:title></dc:title>
      </cc:Work>
    </rdf:RDF>
  </metadata>
  <g
     transform="translate(-934.24103,-911.901)"
     id="layer1">
    <path
       id="path5855"
       transform="translate(934.24103,911.901)"
       d="M 7 4 L 7 5 L 6 5 L 6 6 L 5 6 L 5 7 L 4 7 L 4 8 L 4 9 L 5 9 L 6 9 L 6 10 L 7 10 L 7 9 L 8 9 L 9 9 L 9 10 L 10 10 L 10 9 L 11 9 L 12 9 L 12 8 L 12 7 L 11 7 L 11 6 L 10 6 L 10 5 L 9 5 L 9 4 L 8 4 L 7 4 z M 10 10 L 10 11 L 11 11 L 11 10 L 10 10 z M 11 11 L 11 12 L 12 12 L 12 11 L 11 11 z M 10 11 L 9 11 L 9 12 L 10 12 L 10 11 z M 9 11 L 9 10 L 8 10 L 7 10 L 7 11 L 8 11 L 9 11 z M 7 11 L 6 11 L 6 12 L 7 12 L 7 11 z M 6 11 L 6 10 L 5 10 L 5 11 L 6 11 z M 5 11 L 4 11 L 4 12 L 5 12 L 5 11 z M 6 7 L 7 7 L 7 8 L 6 8 L 6 7 z M 9 7 L 10 7 L 10 8 L 9 8 L 9 7 z "
       style="fill:#000000;fill-opacity:1" />
  </g>
</svg>
