<?xml version="1.0" encoding="UTF-8" standalone="no"?>
<svg
   xmlns:dc="http://purl.org/dc/elements/1.1/"
   xmlns:cc="http://creativecommons.org/ns#"
   xmlns:rdf="http://www.w3.org/1999/02/22-rdf-syntax-ns#"
   xmlns:svg="http://www.w3.org/2000/svg"
   xmlns="http://www.w3.org/2000/svg"
   version="1.1"
   id="svg2"
   viewBox="0 0 15.999999 15.999999"
   height="4.5155554mm"
   width="4.5155554mm">
  <defs
     id="defs4" />
  <metadata
     id="metadata7">
    <rdf:RDF>
      <cc:Work
         rdf:about="">
        <dc:format>image/svg+xml</dc:format>
        <dc:type
           rdf:resource="http://purl.org/dc/dcmitype/StillImage" />
        <dc:title></dc:title>
      </cc:Work>
    </rdf:RDF>
  </metadata>
  <g
     transform="translate(-840.57141,-912.93365)"
     id="layer1">
    <path
       id="path4225"
       transform="translate(840.57141,912.93365)"
       d="M 6 2 L 6 3 L 7 3 L 8 3 L 9 3 L 10 3 L 10 2 L 9 2 L 8 2 L 7 2 L 6 2 z M 10 3 L 10 4 L 11 4 L 12 4 L 12 3 L 11 3 L 10 3 z M 12 4 L 12 5 L 13 5 L 13 4 L 12 4 z M 13 5 L 13 6 L 12 6 L 12 7 L 11 7 L 10 7 L 10 8 L 11 8 L 11 9 L 12 9 L 12 10 L 13 10 L 14 10 L 14 9 L 15 9 L 15 8 L 16 8 L 16 7 L 15 7 L 14 7 L 14 6 L 14 5 L 13 5 z M 6 3 L 5 3 L 4 3 L 4 4 L 5 4 L 6 4 L 6 3 z M 4 4 L 3 4 L 3 5 L 4 5 L 4 4 z M 2 6 L 2 7 L 1 7 L 1 8 L 0 8 L 0 9 L 1 9 L 2 9 L 2 10 L 2 11 L 3 11 L 3 10 L 4 10 L 4 9 L 5 9 L 6 9 L 6 8 L 5 8 L 5 7 L 4 7 L 4 6 L 3 6 L 2 6 z M 3 11 L 3 12 L 4 12 L 4 11 L 3 11 z M 4 12 L 4 13 L 5 13 L 6 13 L 6 12 L 5 12 L 4 12 z M 6 13 L 6 14 L 7 14 L 8 14 L 9 14 L 10 14 L 10 13 L 9 13 L 8 13 L 7 13 L 6 13 z M 10 13 L 11 13 L 12 13 L 12 12 L 11 12 L 10 12 L 10 13 z M 12 12 L 13 12 L 13 11 L 12 11 L 12 12 z "
       style="fill:#000000;fill-opacity:1" />
  </g>
</svg>
