<?xml version="1.0" encoding="UTF-8" standalone="no"?>
<svg
   xmlns:dc="http://purl.org/dc/elements/1.1/"
   xmlns:cc="http://creativecommons.org/ns#"
   xmlns:rdf="http://www.w3.org/1999/02/22-rdf-syntax-ns#"
   xmlns:svg="http://www.w3.org/2000/svg"
   xmlns="http://www.w3.org/2000/svg"
   id="svg4136"
   version="1.1"
   width="4.5155602mm"
   height="4.5155602mm"
   viewBox="0 0 16.000015 16.000017">
  <metadata
     id="metadata4142">
    <rdf:RDF>
      <cc:Work
         rdf:about="">
        <dc:format>image/svg+xml</dc:format>
        <dc:type
           rdf:resource="http://purl.org/dc/dcmitype/StillImage" />
        <dc:title></dc:title>
      </cc:Work>
    </rdf:RDF>
  </metadata>
  <defs
     id="defs4140" />
  <path
     style="fill:#000000;fill-opacity:1"
     d="M 5.0000081,8.4231985e-6 V 1.0000084 h -1 -1 v 1 h 1 1 v 1 h -1 v 1 h -1 v 1 h -1 v -1 -1 h -1 v 1 1 H 8.1231985e-6 v 1 1 1 0.9999994 1.0000002 1 H 1.0000081 v -1 -1.0000002 -0.9999994 -1 h 1 v 1 h 1 v 0.9999994 1.0000002 h -1 v 1 h -1 v 1 h 1 v 1 1 h 1 v -1 -1 h 1 v -1 h 1 1 v 1 1 h 1 v -1 -1 h 1 1 v 1 1 h 0.9999999 v -1 -1 h 1 1 v 1 h 1 v 1 1 h 1 v -1 -1 h 1 v -1 h 1 v -1 -1.0000002 -0.9999994 -1 -1 -1 h -1 v -1 -1 h -1 v 1 1 h -1 -1 -1 v -1 h -1 v -1 H 9.0000081 v -1 -1 h 0.9999999 1 V 8.4231985e-6 h -1 -0.9999999 -1 -1 -1 z M 11.000008,1.0000084 v 1 h 1 1 v -1 h -1 z m 2,1 v 1 h 1 v -1 z m 0,11.9999996 h -1 v 1 h 1 z m -1,1 h -1 -1 -0.9999999 -1 -1 -1 -1 -1 v 1 h 1 1 1 1 1 0.9999999 1 1 z m -7.9999999,0 v -1 h -1 v 1 z m -2,-11.9999996 h 1 v -1 h -1 z m 3,1 h 1 1 1 1 v 1 h 0.9999999 v 1 1 1 H 9.0000081 v 0.9999994 h -1 -1 -1 -1 V 8.0000084 h -1 v -1 -1 -1 h 1 z m 6.9999999,2 h 1 1 v 1 h 1 v 1 0.9999994 h -1 v 1.0000002 h -1 -1 V 9.0000078 h -1 v -0.9999994 -1 h 1 z"
     id="path4937" />
</svg>
