<?xml version="1.0" encoding="UTF-8" standalone="no"?>
<svg
   xmlns:dc="http://purl.org/dc/elements/1.1/"
   xmlns:cc="http://creativecommons.org/ns#"
   xmlns:rdf="http://www.w3.org/1999/02/22-rdf-syntax-ns#"
   xmlns:svg="http://www.w3.org/2000/svg"
   xmlns="http://www.w3.org/2000/svg"
   xmlns:sodipodi="http://sodipodi.sourceforge.net/DTD/sodipodi-0.dtd"
   xmlns:inkscape="http://www.inkscape.org/namespaces/inkscape"
   width="4.2333331mm"
   height="4.2333331mm"
   viewBox="0 0 4.2333331 4.2333331"
   version="1.1"
   id="svg8"
   inkscape:version="1.0.2 (e86c870879, 2021-01-15, custom)"
   sodipodi:docname="panda.svg">
  <defs
     id="defs2" />
  <sodipodi:namedview
     id="base"
     pagecolor="#ffffff"
     bordercolor="#666666"
     borderopacity="1.0"
     inkscape:pageopacity="0.0"
     inkscape:pageshadow="2"
     inkscape:zoom="22.4"
     inkscape:cx="2.4137462"
     inkscape:cy="7.8541564"
     inkscape:document-units="mm"
     inkscape:current-layer="layer1"
     inkscape:document-rotation="0"
     showgrid="false"
     inkscape:window-width="1920"
     inkscape:window-height="1017"
     inkscape:window-x="-8"
     inkscape:window-y="-8"
     inkscape:window-maximized="1" />
  <metadata
     id="metadata5">
    <rdf:RDF>
      <cc:Work
         rdf:about="">
        <dc:format>image/svg+xml</dc:format>
        <dc:type
           rdf:resource="http://purl.org/dc/dcmitype/StillImage" />
        <dc:title></dc:title>
      </cc:Work>
    </rdf:RDF>
  </metadata>
  <g
     inkscape:label="Calque 1"
     inkscape:groupmode="layer"
     id="layer1"
     transform="translate(97.631252,-86.102974)">
    <path
       id="path528"
       style="fill:#050505;fill-opacity:1;stroke-width:0.999999"
       d="M 2 0 L 2 1 L 1 1 L 1 2 L 1 3 L 1 4 L 2 4 L 2 5 L 3 5 L 3 4 L 4 4 L 4 3 L 5 3 L 6 3 L 6 2 L 5 2 L 5 1 L 4 1 L 4 0 L 3 0 L 2 0 z M 6 2 L 7 2 L 8 2 L 9 2 L 10 2 L 10 1 L 9 1 L 8 1 L 7 1 L 6 1 L 6 2 z M 10 2 L 10 3 L 11 3 L 12 3 L 12 4 L 13 4 L 13 5 L 14 5 L 14 4 L 15 4 L 15 3 L 15 2 L 15 1 L 14 1 L 14 0 L 13 0 L 12 0 L 12 1 L 11 1 L 11 2 L 10 2 z M 14 5 L 14 6 L 14 7 L 15 7 L 15 6 L 15 5 L 14 5 z M 15 7 L 15 8 L 15 9 L 15 10 L 15 11 L 15 12 L 16 12 L 16 11 L 16 10 L 16 9 L 16 8 L 16 7 L 15 7 z M 15 12 L 14 12 L 14 13 L 13 13 L 13 14 L 12 14 L 12 15 L 13 15 L 14 15 L 14 14 L 15 14 L 15 13 L 15 12 z M 12 15 L 11 15 L 10 15 L 9 15 L 8 15 L 7 15 L 6 15 L 5 15 L 4 15 L 4 16 L 5 16 L 6 16 L 7 16 L 8 16 L 9 16 L 10 16 L 11 16 L 12 16 L 12 15 z M 4 15 L 4 14 L 3 14 L 3 13 L 2 13 L 2 12 L 1 12 L 1 13 L 1 14 L 2 14 L 2 15 L 3 15 L 4 15 z M 1 12 L 1 11 L 1 10 L 1 9 L 1 8 L 1 7 L 0 7 L 0 8 L 0 9 L 0 10 L 0 11 L 0 12 L 1 12 z M 1 7 L 2 7 L 2 6 L 2 5 L 1 5 L 1 6 L 1 7 z M 4 5 L 4 6 L 3 6 L 3 7 L 3 8 L 2 8 L 2 9 L 3 9 L 4 9 L 5 9 L 5 8 L 6 8 L 7 8 L 7 7 L 7 6 L 7 5 L 6 5 L 5 5 L 4 5 z M 9 5 L 9 6 L 9 7 L 9 8 L 10 8 L 11 8 L 11 9 L 12 9 L 13 9 L 14 9 L 14 8 L 13 8 L 13 7 L 13 6 L 12 6 L 12 5 L 11 5 L 10 5 L 9 5 z M 5 6 L 6 6 L 6 7 L 5 7 L 5 6 z M 10 6 L 11 6 L 11 7 L 10 7 L 10 6 z M 6 9 L 6 10 L 7 10 L 7 11 L 8 11 L 9 11 L 9 10 L 10 10 L 10 9 L 9 9 L 8 9 L 7 9 L 6 9 z "
       transform="matrix(0.26458333,0,0,0.26458333,-97.631252,86.102974)" />
  </g>
</svg>
