<?xml version="1.0" encoding="UTF-8" standalone="no"?>
<svg
   xmlns:dc="http://purl.org/dc/elements/1.1/"
   xmlns:cc="http://creativecommons.org/ns#"
   xmlns:rdf="http://www.w3.org/1999/02/22-rdf-syntax-ns#"
   xmlns:svg="http://www.w3.org/2000/svg"
   xmlns="http://www.w3.org/2000/svg"
   version="1.1"
   id="svg2"
   viewBox="0 0 15.999999 15.999999"
   height="4.5155554mm"
   width="4.5155554mm">
  <defs
     id="defs4" />
  <metadata
     id="metadata7">
    <rdf:RDF>
      <cc:Work
         rdf:about="">
        <dc:format>image/svg+xml</dc:format>
        <dc:type
           rdf:resource="http://purl.org/dc/dcmitype/StillImage" />
        <dc:title></dc:title>
      </cc:Work>
    </rdf:RDF>
  </metadata>
  <g
     transform="translate(-921.43311,-913.92468)"
     id="layer1">
    <path
       id="path13909"
       transform="translate(921.43311,913.92468)"
       d="M 3 4 L 3 5 L 2 5 L 2 6 L 1 6 L 1 7 L 1 8 L 1 9 L 2 9 L 2 10 L 3 10 L 3 11 L 4 11 L 5 11 L 6 11 L 7 11 L 8 11 L 9 11 L 10 11 L 11 11 L 12 11 L 13 11 L 13 10 L 12 10 L 11 10 L 10 10 L 9 10 L 8 10 L 8 9 L 8 8 L 8 7 L 8 6 L 8 5 L 9 5 L 10 5 L 11 5 L 12 5 L 13 5 L 13 4 L 12 4 L 11 4 L 10 4 L 9 4 L 8 4 L 7 4 L 6 4 L 5 4 L 4 4 L 3 4 z M 13 5 L 13 6 L 14 6 L 14 5 L 13 5 z M 14 6 L 14 7 L 14 8 L 14 9 L 15 9 L 15 8 L 15 7 L 15 6 L 14 6 z M 14 9 L 13 9 L 13 10 L 14 10 L 14 9 z M 4 5 L 5 5 L 6 5 L 7 5 L 7 6 L 6 6 L 5 6 L 4 6 L 4 7 L 3 7 L 3 6 L 4 6 L 4 5 z "
       style="fill:#000000;fill-opacity:1" />
  </g>
</svg>
