<?xml version="1.0" encoding="UTF-8" standalone="no"?>
<svg
   xmlns:dc="http://purl.org/dc/elements/1.1/"
   xmlns:cc="http://creativecommons.org/ns#"
   xmlns:rdf="http://www.w3.org/1999/02/22-rdf-syntax-ns#"
   xmlns:svg="http://www.w3.org/2000/svg"
   xmlns="http://www.w3.org/2000/svg"
   version="1.1"
   id="svg2"
   viewBox="0 0 15.999999 15.999999"
   height="4.5155554mm"
   width="4.5155554mm">
  <defs
     id="defs4" />
  <metadata
     id="metadata7">
    <rdf:RDF>
      <cc:Work
         rdf:about="">
        <dc:format>image/svg+xml</dc:format>
        <dc:type
           rdf:resource="http://purl.org/dc/dcmitype/StillImage" />
        <dc:title></dc:title>
      </cc:Work>
    </rdf:RDF>
  </metadata>
  <g
     transform="translate(-847.52997,-907.52887)"
     id="layer1">
    <path
       id="path5846"
       transform="translate(847.52997,907.52887)"
       d="M 2 4 L 2 5 L 2 6 L 3 6 L 3 7 L 4 7 L 4 8 L 3 8 L 3 9 L 3 10 L 2 10 L 2 11 L 2 12 L 2 13 L 3 13 L 4 13 L 5 13 L 5 12 L 5 11 L 5 10 L 6 10 L 7 10 L 8 10 L 9 10 L 9 9 L 8 9 L 7 9 L 7 8 L 8 8 L 9 8 L 9 9 L 10 9 L 10 8 L 11 8 L 12 8 L 13 8 L 14 8 L 14 7 L 15 7 L 15 6 L 15 5 L 14 5 L 13 5 L 12 5 L 11 5 L 10 5 L 9 5 L 8 5 L 7 5 L 6 5 L 5 5 L 4 5 L 3 5 L 3 4 L 2 4 z "
       style="fill:#000000;fill-opacity:1" />
  </g>
</svg>
