<?xml version="1.0" encoding="UTF-8" standalone="no"?>
<svg
   xmlns:dc="http://purl.org/dc/elements/1.1/"
   xmlns:cc="http://creativecommons.org/ns#"
   xmlns:rdf="http://www.w3.org/1999/02/22-rdf-syntax-ns#"
   xmlns:svg="http://www.w3.org/2000/svg"
   xmlns="http://www.w3.org/2000/svg"
   version="1.1"
   id="svg2"
   viewBox="0 0 15.999999 15.999999"
   height="4.5155554mm"
   width="4.5155554mm">
  <defs
     id="defs4" />
  <metadata
     id="metadata7">
    <rdf:RDF>
      <cc:Work
         rdf:about="">
        <dc:format>image/svg+xml</dc:format>
        <dc:type
           rdf:resource="http://purl.org/dc/dcmitype/StillImage" />
        <dc:title></dc:title>
      </cc:Work>
    </rdf:RDF>
  </metadata>
  <g
     transform="translate(-932.20544,-916.72382)"
     id="layer1">
    <path
       id="path15352"
       transform="translate(932.20544,916.72382)"
       d="M 6 0 L 6 1 L 6 2 L 6 3 L 5 3 L 4 3 L 3 3 L 3 4 L 4 4 L 4 5 L 5 5 L 5 4 L 6 4 L 7 4 L 7 3 L 7 2 L 8 2 L 8 1 L 7 1 L 7 0 L 6 0 z M 8 2 L 8 3 L 9 3 L 9 2 L 8 2 z M 9 2 L 10 2 L 10 3 L 10 4 L 9 4 L 8 4 L 8 5 L 9 5 L 10 5 L 11 5 L 12 5 L 12 4 L 11 4 L 11 3 L 11 2 L 11 1 L 11 0 L 10 0 L 10 1 L 9 1 L 9 2 z M 12 5 L 12 6 L 13 6 L 14 6 L 15 6 L 15 5 L 14 5 L 13 5 L 12 5 z M 15 6 L 15 7 L 15 8 L 16 8 L 16 7 L 16 6 L 15 6 z M 15 8 L 14 8 L 13 8 L 12 8 L 12 9 L 13 9 L 13 10 L 14 10 L 14 9 L 15 9 L 15 8 z M 13 10 L 12 10 L 12 11 L 12 12 L 12 13 L 12 14 L 13 14 L 13 13 L 13 12 L 13 11 L 13 10 z M 13 14 L 13 15 L 12 15 L 11 15 L 11 16 L 12 16 L 13 16 L 14 16 L 14 15 L 14 14 L 13 14 z M 11 15 L 11 14 L 10 14 L 10 15 L 11 15 z M 10 14 L 10 13 L 9 13 L 9 14 L 10 14 z M 9 14 L 8 14 L 8 15 L 7 15 L 6 15 L 5 15 L 4 15 L 3 15 L 3 16 L 4 16 L 5 16 L 6 16 L 7 16 L 8 16 L 9 16 L 9 15 L 9 14 z M 3 15 L 3 14 L 2 14 L 1 14 L 1 15 L 2 15 L 3 15 z M 1 14 L 1 13 L 1 12 L 1 11 L 1 10 L 0 10 L 0 11 L 0 12 L 0 13 L 0 14 L 1 14 z M 1 10 L 2 10 L 2 9 L 2 8 L 1 8 L 1 9 L 1 10 z M 2 8 L 3 8 L 3 7 L 2 7 L 2 8 z M 3 7 L 4 7 L 5 7 L 5 6 L 4 6 L 3 6 L 3 7 z M 5 6 L 6 6 L 7 6 L 8 6 L 8 5 L 7 5 L 6 5 L 5 5 L 5 6 z M 5 7 L 5 8 L 6 8 L 6 7 L 5 7 z M 3 8 L 3 9 L 4 9 L 4 8 L 3 8 z M 2 10 L 2 11 L 3 11 L 3 10 L 2 10 z M 8 14 L 8 13 L 9 13 L 9 12 L 9 11 L 9 10 L 8 10 L 8 11 L 8 12 L 7 12 L 7 13 L 6 13 L 6 14 L 7 14 L 8 14 z M 8 10 L 8 9 L 7 9 L 6 9 L 6 10 L 7 10 L 8 10 z M 10 6 L 10 7 L 11 7 L 11 6 L 10 6 z "
       style="fill:#000000;fill-opacity:1" />
  </g>
</svg>
