<?xml version="1.0" encoding="UTF-8" standalone="no"?>
<svg
   xmlns:dc="http://purl.org/dc/elements/1.1/"
   xmlns:cc="http://creativecommons.org/ns#"
   xmlns:rdf="http://www.w3.org/1999/02/22-rdf-syntax-ns#"
   xmlns:svg="http://www.w3.org/2000/svg"
   xmlns="http://www.w3.org/2000/svg"
   xmlns:sodipodi="http://sodipodi.sourceforge.net/DTD/sodipodi-0.dtd"
   xmlns:inkscape="http://www.inkscape.org/namespaces/inkscape"
   width="4.2333331mm"
   height="4.2333331mm"
   viewBox="0 0 4.2333331 4.2333331"
   version="1.1"
   id="svg8"
   inkscape:version="1.0.2 (e86c870879, 2021-01-15, custom)"
   sodipodi:docname="search.svg">
  <defs
     id="defs2" />
  <sodipodi:namedview
     id="base"
     pagecolor="#ffffff"
     bordercolor="#666666"
     borderopacity="1.0"
     inkscape:pageopacity="0.0"
     inkscape:pageshadow="2"
     inkscape:zoom="15.839192"
     inkscape:cx="-9.2791806"
     inkscape:cy="6.9836777"
     inkscape:document-units="mm"
     inkscape:current-layer="layer1"
     inkscape:document-rotation="0"
     showgrid="false"
     inkscape:window-width="1920"
     inkscape:window-height="1017"
     inkscape:window-x="-8"
     inkscape:window-y="-8"
     inkscape:window-maximized="1" />
  <metadata
     id="metadata5">
    <rdf:RDF>
      <cc:Work
         rdf:about="">
        <dc:format>image/svg+xml</dc:format>
        <dc:type
           rdf:resource="http://purl.org/dc/dcmitype/StillImage" />
        <dc:title></dc:title>
      </cc:Work>
    </rdf:RDF>
  </metadata>
  <g
     inkscape:label="Calque 1"
     inkscape:groupmode="layer"
     id="layer1"
     transform="translate(-50.346429,-44.298808)">
    <path
       id="path534"
       style="fill:#000000;fill-opacity:1;stroke-width:0.999999"
       d="M 4 1 L 4 2 L 5 2 L 6 2 L 7 2 L 8 2 L 8 1 L 7 1 L 6 1 L 5 1 L 4 1 z M 8 2 L 8 3 L 9 3 L 9 4 L 10 4 L 10 3 L 10 2 L 9 2 L 8 2 z M 10 4 L 10 5 L 10 6 L 10 7 L 10 8 L 11 8 L 11 7 L 11 6 L 11 5 L 11 4 L 10 4 z M 10 8 L 9 8 L 9 9 L 8 9 L 8 10 L 9 10 L 10 10 L 10 9 L 10 8 z M 10 10 L 10 11 L 10 12 L 10 13 L 11 13 L 11 14 L 12 14 L 12 15 L 13 15 L 13 16 L 14 16 L 15 16 L 15 15 L 16 15 L 16 14 L 16 13 L 15 13 L 15 12 L 14 12 L 14 11 L 13 11 L 13 10 L 12 10 L 11 10 L 10 10 z M 8 10 L 7 10 L 6 10 L 5 10 L 4 10 L 4 11 L 5 11 L 6 11 L 7 11 L 8 11 L 8 10 z M 4 10 L 4 9 L 3 9 L 3 8 L 2 8 L 2 9 L 2 10 L 3 10 L 4 10 z M 2 8 L 2 7 L 2 6 L 2 5 L 2 4 L 1 4 L 1 5 L 1 6 L 1 7 L 1 8 L 2 8 z M 2 4 L 3 4 L 3 3 L 4 3 L 4 2 L 3 2 L 2 2 L 2 3 L 2 4 z "
       transform="matrix(0.26458333,0,0,0.26458333,50.346429,44.298808)" />
  </g>
</svg>
