<?xml version="1.0" encoding="UTF-8" standalone="no"?>
<svg
   xmlns:dc="http://purl.org/dc/elements/1.1/"
   xmlns:cc="http://creativecommons.org/ns#"
   xmlns:rdf="http://www.w3.org/1999/02/22-rdf-syntax-ns#"
   xmlns:svg="http://www.w3.org/2000/svg"
   xmlns="http://www.w3.org/2000/svg"
   xmlns:sodipodi="http://sodipodi.sourceforge.net/DTD/sodipodi-0.dtd"
   xmlns:inkscape="http://www.inkscape.org/namespaces/inkscape"
   width="4.2333331mm"
   height="4.2333331mm"
   viewBox="0 0 4.2333331 4.2333331"
   version="1.1"
   id="svg8"
   inkscape:version="1.0.2 (e86c870879, 2021-01-15, custom)"
   sodipodi:docname="skull-2.svg">
  <defs
     id="defs2" />
  <sodipodi:namedview
     id="base"
     pagecolor="#ffffff"
     bordercolor="#666666"
     borderopacity="1.0"
     inkscape:pageopacity="0.0"
     inkscape:pageshadow="2"
     inkscape:zoom="11.2"
     inkscape:cx="-6.2756795"
     inkscape:cy="21.39468"
     inkscape:document-units="mm"
     inkscape:current-layer="layer1"
     inkscape:document-rotation="0"
     showgrid="false"
     inkscape:window-width="1920"
     inkscape:window-height="1017"
     inkscape:window-x="-8"
     inkscape:window-y="-8"
     inkscape:window-maximized="1" />
  <metadata
     id="metadata5">
    <rdf:RDF>
      <cc:Work
         rdf:about="">
        <dc:format>image/svg+xml</dc:format>
        <dc:type
           rdf:resource="http://purl.org/dc/dcmitype/StillImage" />
        <dc:title></dc:title>
      </cc:Work>
    </rdf:RDF>
  </metadata>
  <g
     inkscape:label="Calque 1"
     inkscape:groupmode="layer"
     id="layer1"
     transform="translate(31.674405,-64.407143)">
    <path
       id="path1317"
       style="fill:#000000;fill-opacity:1;stroke-width:0.999999"
       d="M 4 1 L 4 2 L 3 2 L 3 3 L 3 4 L 2 4 L 2 5 L 2 6 L 2 7 L 2 8 L 2 9 L 2 10 L 2 11 L 3 11 L 3 12 L 4 12 L 4 13 L 5 13 L 5 14 L 5 15 L 6 15 L 7 15 L 8 15 L 9 15 L 10 15 L 11 15 L 11 14 L 11 13 L 12 13 L 12 12 L 13 12 L 13 11 L 14 11 L 14 10 L 14 9 L 14 8 L 14 7 L 14 6 L 14 5 L 14 4 L 13 4 L 13 3 L 13 2 L 12 2 L 12 1 L 11 1 L 10 1 L 9 1 L 8 1 L 7 1 L 6 1 L 5 1 L 4 1 z M 4 8 L 5 8 L 6 8 L 7 8 L 7 9 L 7 10 L 6 10 L 6 11 L 5 11 L 4 11 L 4 10 L 3 10 L 3 9 L 4 9 L 4 8 z M 9 8 L 10 8 L 11 8 L 12 8 L 12 9 L 13 9 L 13 10 L 12 10 L 12 11 L 11 11 L 10 11 L 10 10 L 9 10 L 9 9 L 9 8 z M 7 11 L 8 11 L 9 11 L 9 12 L 9 13 L 8 13 L 7 13 L 7 12 L 7 11 z "
       transform="matrix(0.26458333,0,0,0.26458333,-31.674405,64.407143)" />
  </g>
</svg>
