<?xml version="1.0" encoding="UTF-8" standalone="no"?>
<svg
   xmlns:dc="http://purl.org/dc/elements/1.1/"
   xmlns:cc="http://creativecommons.org/ns#"
   xmlns:rdf="http://www.w3.org/1999/02/22-rdf-syntax-ns#"
   xmlns:svg="http://www.w3.org/2000/svg"
   xmlns="http://www.w3.org/2000/svg"
   xmlns:sodipodi="http://sodipodi.sourceforge.net/DTD/sodipodi-0.dtd"
   xmlns:inkscape="http://www.inkscape.org/namespaces/inkscape"
   width="4.2333331mm"
   height="4.2333331mm"
   viewBox="0 0 4.2333331 4.2333331"
   version="1.1"
   id="svg8"
   inkscape:version="1.0.2 (e86c870879, 2021-01-15, custom)"
   sodipodi:docname="sliders.svg">
  <defs
     id="defs2" />
  <sodipodi:namedview
     id="base"
     pagecolor="#ffffff"
     bordercolor="#666666"
     borderopacity="1.0"
     inkscape:pageopacity="0.0"
     inkscape:pageshadow="2"
     inkscape:zoom="7.9195959"
     inkscape:cx="3.7300261"
     inkscape:cy="3.763192"
     inkscape:document-units="mm"
     inkscape:current-layer="layer1"
     inkscape:document-rotation="0"
     showgrid="false"
     inkscape:window-width="1920"
     inkscape:window-height="1017"
     inkscape:window-x="-8"
     inkscape:window-y="-8"
     inkscape:window-maximized="1" />
  <metadata
     id="metadata5">
    <rdf:RDF>
      <cc:Work
         rdf:about="">
        <dc:format>image/svg+xml</dc:format>
        <dc:type
           rdf:resource="http://purl.org/dc/dcmitype/StillImage" />
        <dc:title></dc:title>
      </cc:Work>
    </rdf:RDF>
  </metadata>
  <g
     inkscape:label="Calque 1"
     inkscape:groupmode="layer"
     id="layer1"
     transform="translate(27.478869,-50.799999)">
    <path
       id="path1307"
       style="fill:#000000;fill-opacity:1;stroke-width:0.999999"
       d="M 3 2 L 3 3 L 2 3 L 1 3 L 1 4 L 2 4 L 3 4 L 3 5 L 4 5 L 5 5 L 6 5 L 6 4 L 7 4 L 8 4 L 9 4 L 10 4 L 11 4 L 12 4 L 13 4 L 14 4 L 15 4 L 15 3 L 14 3 L 13 3 L 12 3 L 11 3 L 10 3 L 9 3 L 8 3 L 7 3 L 6 3 L 6 2 L 5 2 L 4 2 L 3 2 z M 10 7 L 10 8 L 9 8 L 8 8 L 7 8 L 6 8 L 5 8 L 4 8 L 3 8 L 2 8 L 1 8 L 1 9 L 2 9 L 3 9 L 4 9 L 5 9 L 6 9 L 7 9 L 8 9 L 9 9 L 10 9 L 10 10 L 11 10 L 12 10 L 13 10 L 13 9 L 14 9 L 15 9 L 15 8 L 14 8 L 13 8 L 13 7 L 12 7 L 11 7 L 10 7 z M 3 12 L 3 13 L 2 13 L 1 13 L 1 14 L 2 14 L 3 14 L 3 15 L 4 15 L 5 15 L 6 15 L 6 14 L 7 14 L 8 14 L 9 14 L 10 14 L 11 14 L 12 14 L 13 14 L 14 14 L 15 14 L 15 13 L 14 13 L 13 13 L 12 13 L 11 13 L 10 13 L 9 13 L 8 13 L 7 13 L 6 13 L 6 12 L 5 12 L 4 12 L 3 12 z "
       transform="matrix(0.26458333,0,0,0.26458333,-27.478869,50.799999)" />
  </g>
</svg>
