<?xml version="1.0" encoding="UTF-8" standalone="no"?>
<svg
   xmlns:dc="http://purl.org/dc/elements/1.1/"
   xmlns:cc="http://creativecommons.org/ns#"
   xmlns:rdf="http://www.w3.org/1999/02/22-rdf-syntax-ns#"
   xmlns:svg="http://www.w3.org/2000/svg"
   xmlns="http://www.w3.org/2000/svg"
   version="1.1"
   id="svg2"
   viewBox="0 0 15.999999 15.999999"
   height="4.5155554mm"
   width="4.5155554mm">
  <defs
     id="defs4" />
  <metadata
     id="metadata7">
    <rdf:RDF>
      <cc:Work
         rdf:about="">
        <dc:format>image/svg+xml</dc:format>
        <dc:type
           rdf:resource="http://purl.org/dc/dcmitype/StillImage" />
        <dc:title></dc:title>
      </cc:Work>
    </rdf:RDF>
  </metadata>
  <g
     transform="translate(-886.28571,-898.64795)"
     id="layer1">
    <path
       id="path4159"
       transform="translate(886.28571,898.64795)"
       d="M 5 0 L 5 1 L 6 1 L 6 0 L 5 0 z M 5 1 L 4 1 L 4 2 L 4 3 L 4 4 L 5 4 L 5 3 L 5 2 L 5 1 z M 4 4 L 3 4 L 3 5 L 4 5 L 4 4 z M 4 5 L 4 6 L 5 6 L 5 5 L 4 5 z M 5 6 L 5 7 L 5 8 L 4 8 L 4 9 L 5 9 L 5 10 L 6 10 L 6 11 L 7 11 L 8 11 L 9 11 L 10 11 L 10 10 L 11 10 L 11 9 L 12 9 L 12 8 L 11 8 L 11 7 L 11 6 L 10 6 L 10 5 L 10 4 L 9 4 L 9 3 L 8 3 L 7 3 L 7 4 L 6 4 L 6 5 L 6 6 L 5 6 z M 11 6 L 12 6 L 12 5 L 11 5 L 11 6 z M 12 5 L 13 5 L 13 4 L 12 4 L 12 5 z M 12 4 L 12 3 L 12 2 L 12 1 L 11 1 L 11 2 L 11 3 L 11 4 L 12 4 z M 11 1 L 11 0 L 10 0 L 10 1 L 11 1 z M 12 8 L 13 8 L 14 8 L 14 7 L 13 7 L 12 7 L 12 8 z M 14 7 L 15 7 L 15 6 L 14 6 L 14 7 z M 11 10 L 11 11 L 12 11 L 12 10 L 11 10 z M 12 11 L 12 12 L 13 12 L 13 11 L 12 11 z M 13 12 L 13 13 L 13 14 L 14 14 L 14 13 L 14 12 L 13 12 z M 11 11 L 10 11 L 10 12 L 10 13 L 10 14 L 10 15 L 11 15 L 11 14 L 11 13 L 11 12 L 11 11 z M 10 15 L 9 15 L 9 16 L 10 16 L 10 15 z M 6 11 L 5 11 L 5 12 L 5 13 L 5 14 L 5 15 L 6 15 L 6 14 L 6 13 L 6 12 L 6 11 z M 6 15 L 6 16 L 7 16 L 7 15 L 6 15 z M 5 11 L 5 10 L 4 10 L 4 11 L 5 11 z M 4 11 L 3 11 L 3 12 L 4 12 L 4 11 z M 3 12 L 2 12 L 2 13 L 2 14 L 3 14 L 3 13 L 3 12 z M 4 8 L 4 7 L 3 7 L 2 7 L 2 8 L 3 8 L 4 8 z M 2 7 L 2 6 L 1 6 L 1 7 L 2 7 z "
       style="fill:#000000;fill-opacity:1" />
  </g>
</svg>
