<?xml version="1.0" encoding="UTF-8" standalone="no"?>
<svg
   xmlns:dc="http://purl.org/dc/elements/1.1/"
   xmlns:cc="http://creativecommons.org/ns#"
   xmlns:rdf="http://www.w3.org/1999/02/22-rdf-syntax-ns#"
   xmlns:svg="http://www.w3.org/2000/svg"
   xmlns="http://www.w3.org/2000/svg"
   version="1.1"
   id="svg2"
   viewBox="0 0 15.999999 15.999999"
   height="4.5155554mm"
   width="4.5155554mm">
  <defs
     id="defs4" />
  <metadata
     id="metadata7">
    <rdf:RDF>
      <cc:Work
         rdf:about="">
        <dc:format>image/svg+xml</dc:format>
        <dc:type
           rdf:resource="http://purl.org/dc/dcmitype/StillImage" />
        <dc:title></dc:title>
      </cc:Work>
    </rdf:RDF>
  </metadata>
  <g
     transform="translate(-847.52997,-907.52887)"
     id="layer1">
    <path
       id="path7363"
       transform="translate(847.52997,907.52887)"
       d="M 14 0 L 14 1 L 15 1 L 15 0 L 14 0 z M 12 1 L 12 2 L 13 2 L 13 1 L 12 1 z M 5 2 L 5 3 L 4 3 L 4 4 L 5 4 L 6 4 L 7 4 L 7 3 L 6 3 L 6 2 L 5 2 z M 7 4 L 7 5 L 6 5 L 5 5 L 4 5 L 4 4 L 3 4 L 3 5 L 2 5 L 2 6 L 2 7 L 2 8 L 2 9 L 2 10 L 2 11 L 2 12 L 2 13 L 2 14 L 2 15 L 2 16 L 3 16 L 4 16 L 5 16 L 6 16 L 7 16 L 8 16 L 9 16 L 9 15 L 9 14 L 9 13 L 9 12 L 9 11 L 9 10 L 9 9 L 9 8 L 9 7 L 9 6 L 9 5 L 8 5 L 8 4 L 7 4 z M 8 2 L 8 3 L 9 3 L 9 2 L 8 2 z M 10 2 L 10 3 L 11 3 L 11 2 L 10 2 z M 14 2 L 14 3 L 15 3 L 15 2 L 14 2 z M 12 3 L 12 4 L 13 4 L 13 3 L 12 3 z M 14 4 L 14 5 L 15 5 L 15 4 L 14 4 z M 3 6 L 4 6 L 5 6 L 6 6 L 7 6 L 8 6 L 8 7 L 7 7 L 6 7 L 5 7 L 5 8 L 5 9 L 5 10 L 5 11 L 5 12 L 5 13 L 6 13 L 7 13 L 8 13 L 8 14 L 8 15 L 7 15 L 6 15 L 5 15 L 4 15 L 3 15 L 3 14 L 3 13 L 3 12 L 3 11 L 3 10 L 3 9 L 3 8 L 3 7 L 3 6 z M 6 8 L 7 8 L 8 8 L 8 9 L 7 9 L 6 9 L 6 8 z M 6 10 L 7 10 L 8 10 L 8 11 L 7 11 L 6 11 L 6 10 z "
       style="fill:#000000;fill-opacity:1" />
  </g>
</svg>
