<?xml version="1.0" encoding="UTF-8" standalone="no"?>
<svg
   xmlns:dc="http://purl.org/dc/elements/1.1/"
   xmlns:cc="http://creativecommons.org/ns#"
   xmlns:rdf="http://www.w3.org/1999/02/22-rdf-syntax-ns#"
   xmlns:svg="http://www.w3.org/2000/svg"
   xmlns="http://www.w3.org/2000/svg"
   version="1.1"
   id="svg2"
   viewBox="0 0 15.999999 15.999999"
   height="4.5155554mm"
   width="4.5155554mm">
  <defs
     id="defs4" />
  <metadata
     id="metadata7">
    <rdf:RDF>
      <cc:Work
         rdf:about="">
        <dc:format>image/svg+xml</dc:format>
        <dc:type
           rdf:resource="http://purl.org/dc/dcmitype/StillImage" />
        <dc:title></dc:title>
      </cc:Work>
    </rdf:RDF>
  </metadata>
  <g
     transform="translate(-936.86993,-939.96832)"
     id="layer1">
    <path
       id="path18256"
       transform="translate(936.86993,939.96832)"
       d="M 8 0 L 8 1 L 9 1 L 9 0 L 8 0 z M 9 1 L 9 2 L 9 3 L 10 3 L 10 2 L 10 1 L 9 1 z M 10 3 L 10 4 L 10 5 L 11 5 L 11 4 L 11 3 L 10 3 z M 11 5 L 11 6 L 12 6 L 13 6 L 14 6 L 15 6 L 15 7 L 16 7 L 16 6 L 16 5 L 15 5 L 14 5 L 13 5 L 12 5 L 11 5 z M 15 7 L 14 7 L 14 8 L 15 8 L 15 7 z M 14 8 L 13 8 L 13 9 L 14 9 L 14 8 z M 13 9 L 12 9 L 12 10 L 13 10 L 13 9 z M 13 10 L 13 11 L 13 12 L 14 12 L 14 11 L 14 10 L 13 10 z M 14 12 L 14 13 L 14 14 L 15 14 L 15 13 L 15 12 L 14 12 z M 15 14 L 15 15 L 14 15 L 13 15 L 13 16 L 14 16 L 15 16 L 16 16 L 16 15 L 16 14 L 15 14 z M 13 15 L 13 14 L 12 14 L 11 14 L 11 15 L 12 15 L 13 15 z M 11 14 L 11 13 L 10 13 L 9 13 L 9 14 L 10 14 L 11 14 z M 9 13 L 9 12 L 8 12 L 8 13 L 9 13 z M 8 13 L 7 13 L 6 13 L 6 14 L 7 14 L 8 14 L 8 13 z M 6 14 L 5 14 L 4 14 L 4 15 L 5 15 L 6 15 L 6 14 z M 4 15 L 3 15 L 2 15 L 2 14 L 1 14 L 1 15 L 1 16 L 2 16 L 3 16 L 4 16 L 4 15 z M 2 14 L 3 14 L 3 13 L 3 12 L 2 12 L 2 13 L 2 14 z M 3 12 L 4 12 L 4 11 L 4 10 L 3 10 L 3 11 L 3 12 z M 4 10 L 5 10 L 5 9 L 4 9 L 4 10 z M 4 9 L 4 8 L 3 8 L 3 9 L 4 9 z M 3 8 L 3 7 L 2 7 L 2 8 L 3 8 z M 2 7 L 2 6 L 3 6 L 4 6 L 5 6 L 6 6 L 6 5 L 5 5 L 4 5 L 3 5 L 2 5 L 1 5 L 1 6 L 1 7 L 2 7 z M 6 5 L 7 5 L 7 4 L 7 3 L 6 3 L 6 4 L 6 5 z M 7 3 L 8 3 L 8 2 L 8 1 L 7 1 L 7 2 L 7 3 z M 7 6 L 7 7 L 7 8 L 7 9 L 8 9 L 8 8 L 8 7 L 8 6 L 7 6 z M 9 6 L 9 7 L 9 8 L 9 9 L 10 9 L 10 8 L 10 7 L 10 6 L 9 6 z "
       style="fill:#000000;fill-opacity:1" />
  </g>
</svg>
