<?xml version="1.0" encoding="UTF-8" standalone="no"?>
<svg
   xmlns:dc="http://purl.org/dc/elements/1.1/"
   xmlns:cc="http://creativecommons.org/ns#"
   xmlns:rdf="http://www.w3.org/1999/02/22-rdf-syntax-ns#"
   xmlns:svg="http://www.w3.org/2000/svg"
   xmlns="http://www.w3.org/2000/svg"
   xmlns:sodipodi="http://sodipodi.sourceforge.net/DTD/sodipodi-0.dtd"
   xmlns:inkscape="http://www.inkscape.org/namespaces/inkscape"
   width="4.2333331mm"
   height="4.2333331mm"
   viewBox="0 0 4.2333331 4.2333331"
   version="1.1"
   id="svg8"
   inkscape:version="1.0.2 (e86c870879, 2021-01-15, custom)"
   sodipodi:docname="sword.svg">
  <defs
     id="defs2" />
  <sodipodi:namedview
     id="base"
     pagecolor="#ffffff"
     bordercolor="#666666"
     borderopacity="1.0"
     inkscape:pageopacity="0.0"
     inkscape:pageshadow="2"
     inkscape:zoom="11.2"
     inkscape:cx="28.070649"
     inkscape:cy="10.255257"
     inkscape:document-units="mm"
     inkscape:current-layer="layer1"
     inkscape:document-rotation="0"
     showgrid="false"
     inkscape:window-width="1920"
     inkscape:window-height="1017"
     inkscape:window-x="-8"
     inkscape:window-y="-8"
     inkscape:window-maximized="1" />
  <metadata
     id="metadata5">
    <rdf:RDF>
      <cc:Work
         rdf:about="">
        <dc:format>image/svg+xml</dc:format>
        <dc:type
           rdf:resource="http://purl.org/dc/dcmitype/StillImage" />
        <dc:title></dc:title>
      </cc:Work>
    </rdf:RDF>
  </metadata>
  <g
     inkscape:label="Calque 1"
     inkscape:groupmode="layer"
     id="layer1"
     transform="translate(20.944606,-75.793675)">
    <path
       id="path510"
       style="fill:#000000;fill-opacity:1;stroke-width:0.999999"
       d="M 13 0 L 13 1 L 14 1 L 15 1 L 15 2 L 15 3 L 16 3 L 16 2 L 16 1 L 16 0 L 15 0 L 14 0 L 13 0 z M 15 3 L 14 3 L 14 4 L 15 4 L 15 3 z M 14 4 L 13 4 L 13 5 L 14 5 L 14 4 z M 13 5 L 12 5 L 12 6 L 13 6 L 13 5 z M 12 6 L 11 6 L 11 7 L 12 7 L 12 6 z M 11 7 L 10 7 L 10 8 L 11 8 L 11 7 z M 10 8 L 9 8 L 9 9 L 10 9 L 10 8 z M 9 9 L 8 9 L 8 10 L 9 10 L 9 9 z M 8 10 L 7 10 L 7 11 L 8 11 L 8 10 z M 7 11 L 6 11 L 5 11 L 5 12 L 6 12 L 7 12 L 7 11 z M 7 12 L 7 13 L 6 13 L 5 13 L 5 14 L 6 14 L 7 14 L 7 15 L 8 15 L 9 15 L 9 14 L 9 13 L 8 13 L 8 12 L 7 12 z M 5 13 L 5 12 L 4 12 L 4 11 L 3 11 L 3 12 L 2 12 L 2 13 L 1 13 L 0 13 L 0 14 L 0 15 L 0 16 L 1 16 L 2 16 L 3 16 L 3 15 L 3 14 L 4 14 L 4 13 L 5 13 z M 3 11 L 3 10 L 3 9 L 4 9 L 4 8 L 3 8 L 3 7 L 2 7 L 1 7 L 1 8 L 1 9 L 2 9 L 2 10 L 2 11 L 3 11 z M 4 9 L 4 10 L 4 11 L 5 11 L 5 10 L 5 9 L 4 9 z M 5 9 L 6 9 L 6 8 L 5 8 L 5 9 z M 6 8 L 7 8 L 7 7 L 6 7 L 6 8 z M 7 7 L 8 7 L 8 6 L 7 6 L 7 7 z M 8 6 L 9 6 L 9 5 L 8 5 L 8 6 z M 9 5 L 10 5 L 10 4 L 9 4 L 9 5 z M 10 4 L 11 4 L 11 3 L 10 3 L 10 4 z M 11 3 L 12 3 L 12 2 L 11 2 L 11 3 z M 12 2 L 13 2 L 13 1 L 12 1 L 12 2 z M 1 14 L 2 14 L 2 15 L 1 15 L 1 14 z "
       transform="matrix(0.26458333,0,0,0.26458333,-20.944606,75.793675)" />
  </g>
</svg>
