<?xml version="1.0" encoding="UTF-8" standalone="no"?>
<svg
   xmlns:dc="http://purl.org/dc/elements/1.1/"
   xmlns:cc="http://creativecommons.org/ns#"
   xmlns:rdf="http://www.w3.org/1999/02/22-rdf-syntax-ns#"
   xmlns:svg="http://www.w3.org/2000/svg"
   xmlns="http://www.w3.org/2000/svg"
   version="1.1"
   id="svg2"
   viewBox="0 0 15.999999 15.999999"
   height="4.5155554mm"
   width="4.5155554mm">
  <defs
     id="defs4" />
  <metadata
     id="metadata7">
    <rdf:RDF>
      <cc:Work
         rdf:about="">
        <dc:format>image/svg+xml</dc:format>
        <dc:type
           rdf:resource="http://purl.org/dc/dcmitype/StillImage" />
        <dc:title></dc:title>
      </cc:Work>
    </rdf:RDF>
  </metadata>
  <g
     transform="translate(-870.78711,-906.72461)"
     id="layer1">
    <path
       id="path7287"
       transform="translate(870.78711,906.72461)"
       d="M 4 0 L 4 1 L 5 1 L 6 1 L 7 1 L 8 1 L 8 0 L 7 0 L 6 0 L 5 0 L 4 0 z M 8 1 L 8 2 L 7 2 L 6 2 L 5 2 L 4 2 L 3 2 L 3 3 L 2 3 L 2 4 L 2 5 L 2 6 L 2 7 L 2 8 L 2 9 L 2 10 L 2 11 L 2 12 L 2 13 L 2 14 L 3 14 L 3 15 L 4 15 L 5 15 L 6 15 L 7 15 L 8 15 L 9 15 L 10 15 L 11 15 L 12 15 L 13 15 L 13 14 L 14 14 L 14 13 L 14 12 L 14 11 L 14 10 L 14 9 L 14 8 L 14 7 L 14 6 L 14 5 L 14 4 L 14 3 L 13 3 L 13 2 L 12 2 L 11 2 L 10 2 L 9 2 L 9 1 L 8 1 z M 9 1 L 10 1 L 11 1 L 11 0 L 10 0 L 9 0 L 9 1 z M 7 3 L 8 3 L 9 3 L 9 4 L 8 4 L 7 4 L 7 3 z M 3 5 L 4 5 L 5 5 L 6 5 L 7 5 L 8 5 L 9 5 L 10 5 L 11 5 L 12 5 L 13 5 L 13 6 L 13 7 L 13 8 L 13 9 L 13 10 L 13 11 L 12 11 L 11 11 L 10 11 L 9 11 L 8 11 L 7 11 L 6 11 L 5 11 L 4 11 L 3 11 L 3 10 L 3 9 L 3 8 L 3 7 L 3 6 L 3 5 z M 3 12 L 4 12 L 5 12 L 5 13 L 4 13 L 3 13 L 3 12 z "
       style="fill:#000000;fill-opacity:1" />
  </g>
</svg>
