<?xml version="1.0" encoding="UTF-8" standalone="no"?>
<svg
   xmlns:dc="http://purl.org/dc/elements/1.1/"
   xmlns:cc="http://creativecommons.org/ns#"
   xmlns:rdf="http://www.w3.org/1999/02/22-rdf-syntax-ns#"
   xmlns:svg="http://www.w3.org/2000/svg"
   xmlns="http://www.w3.org/2000/svg"
   version="1.1"
   id="svg2"
   viewBox="0 0 15.999999 15.999999"
   height="4.5155554mm"
   width="4.5155554mm">
  <defs
     id="defs4" />
  <metadata
     id="metadata7">
    <rdf:RDF>
      <cc:Work
         rdf:about="">
        <dc:format>image/svg+xml</dc:format>
        <dc:type
           rdf:resource="http://purl.org/dc/dcmitype/StillImage" />
        <dc:title></dc:title>
      </cc:Work>
    </rdf:RDF>
  </metadata>
  <g
     transform="translate(-847.52997,-907.52887)"
     id="layer1">
    <path
       id="path9070"
       transform="translate(847.52997,907.52887)"
       d="M 5 5 L 5 6 L 4 6 L 4 7 L 4 8 L 3 8 L 3 9 L 2 9 L 2 10 L 2 11 L 2 12 L 2 13 L 3 13 L 3 14 L 3 15 L 4 15 L 5 15 L 5 14 L 5 13 L 6 13 L 7 13 L 8 13 L 9 13 L 10 13 L 11 13 L 11 14 L 11 15 L 12 15 L 13 15 L 13 14 L 13 13 L 14 13 L 14 12 L 14 11 L 14 10 L 14 9 L 13 9 L 13 8 L 12 8 L 12 7 L 12 6 L 11 6 L 11 5 L 10 5 L 9 5 L 8 5 L 7 5 L 6 5 L 5 5 z M 6 6 L 7 6 L 8 6 L 9 6 L 10 6 L 10 7 L 11 7 L 11 8 L 11 9 L 10 9 L 9 9 L 8 9 L 7 9 L 6 9 L 5 9 L 5 8 L 5 7 L 6 7 L 6 6 z M 3 10 L 4 10 L 5 10 L 5 11 L 5 12 L 4 12 L 3 12 L 3 11 L 3 10 z M 11 10 L 12 10 L 13 10 L 13 11 L 13 12 L 12 12 L 11 12 L 11 11 L 11 10 z "
       style="fill:#000000;fill-opacity:1" />
  </g>
</svg>
