<?xml version="1.0" encoding="UTF-8" standalone="no"?>
<svg
   xmlns:dc="http://purl.org/dc/elements/1.1/"
   xmlns:cc="http://creativecommons.org/ns#"
   xmlns:rdf="http://www.w3.org/1999/02/22-rdf-syntax-ns#"
   xmlns:svg="http://www.w3.org/2000/svg"
   xmlns="http://www.w3.org/2000/svg"
   xmlns:sodipodi="http://sodipodi.sourceforge.net/DTD/sodipodi-0.dtd"
   xmlns:inkscape="http://www.inkscape.org/namespaces/inkscape"
   width="4.2333331mm"
   height="4.2333331mm"
   viewBox="0 0 4.2333331 4.2333331"
   version="1.1"
   id="svg8"
   inkscape:version="1.0.2 (e86c870879, 2021-01-15, custom)"
   sodipodi:docname="umbrella.svg">
  <defs
     id="defs2" />
  <sodipodi:namedview
     id="base"
     pagecolor="#ffffff"
     bordercolor="#666666"
     borderopacity="1.0"
     inkscape:pageopacity="0.0"
     inkscape:pageshadow="2"
     inkscape:zoom="7.9195959"
     inkscape:cx="11.8048"
     inkscape:cy="-4.8143953"
     inkscape:document-units="mm"
     inkscape:current-layer="layer1"
     inkscape:document-rotation="0"
     showgrid="false"
     inkscape:window-width="1920"
     inkscape:window-height="1017"
     inkscape:window-x="-8"
     inkscape:window-y="-8"
     inkscape:window-maximized="1" />
  <metadata
     id="metadata5">
    <rdf:RDF>
      <cc:Work
         rdf:about="">
        <dc:format>image/svg+xml</dc:format>
        <dc:type
           rdf:resource="http://purl.org/dc/dcmitype/StillImage" />
        <dc:title></dc:title>
      </cc:Work>
    </rdf:RDF>
  </metadata>
  <g
     inkscape:label="Calque 1"
     inkscape:groupmode="layer"
     id="layer1"
     transform="translate(30.621444,-52.245088)">
    <path
       id="path1247"
       style="fill:#000000;fill-opacity:1;stroke-width:0.999999"
       d="M 6 3 L 6 4 L 5 4 L 5 5 L 4 5 L 4 6 L 4 7 L 5 7 L 6 7 L 7 7 L 8 7 L 8 8 L 8 9 L 8 10 L 8 11 L 8 12 L 9 12 L 9 11 L 9 10 L 9 9 L 9 8 L 9 7 L 10 7 L 11 7 L 12 7 L 13 7 L 13 6 L 13 5 L 12 5 L 12 4 L 11 4 L 11 3 L 10 3 L 9 3 L 8 3 L 7 3 L 6 3 z M 8 12 L 7 12 L 7 13 L 8 13 L 8 12 z M 7 12 L 7 11 L 6 11 L 6 12 L 7 12 z "
       transform="matrix(0.26458333,0,0,0.26458333,-30.621444,52.245088)" />
  </g>
</svg>
