<?xml version="1.0" encoding="UTF-8" standalone="no"?>
<svg
   xmlns:dc="http://purl.org/dc/elements/1.1/"
   xmlns:cc="http://creativecommons.org/ns#"
   xmlns:rdf="http://www.w3.org/1999/02/22-rdf-syntax-ns#"
   xmlns:svg="http://www.w3.org/2000/svg"
   xmlns="http://www.w3.org/2000/svg"
   version="1.1"
   id="svg2"
   viewBox="0 0 15.999999 15.999999"
   height="4.5155554mm"
   width="4.5155554mm">
  <defs
     id="defs4" />
  <metadata
     id="metadata7">
    <rdf:RDF>
      <cc:Work
         rdf:about="">
        <dc:format>image/svg+xml</dc:format>
        <dc:type
           rdf:resource="http://purl.org/dc/dcmitype/StillImage" />
        <dc:title></dc:title>
      </cc:Work>
    </rdf:RDF>
  </metadata>
  <g
     transform="translate(-951.16077,-923.70593)"
     id="layer1">
    <path
       id="path18480"
       transform="translate(951.16077,923.70593)"
       d="M 5 0 L 5 1 L 5 2 L 5 3 L 5 4 L 6 4 L 7 4 L 8 4 L 9 4 L 10 4 L 11 4 L 11 3 L 11 2 L 11 1 L 11 0 L 10 0 L 9 0 L 8 0 L 7 0 L 6 0 L 5 0 z M 11 4 L 11 5 L 12 5 L 12 4 L 11 4 z M 12 5 L 12 6 L 12 7 L 12 8 L 12 9 L 12 10 L 12 11 L 13 11 L 13 10 L 13 9 L 14 9 L 14 8 L 14 7 L 13 7 L 13 6 L 13 5 L 12 5 z M 12 11 L 11 11 L 11 12 L 12 12 L 12 11 z M 11 12 L 10 12 L 9 12 L 8 12 L 7 12 L 6 12 L 5 12 L 5 13 L 5 14 L 5 15 L 5 16 L 6 16 L 7 16 L 8 16 L 9 16 L 10 16 L 11 16 L 11 15 L 11 14 L 11 13 L 11 12 z M 5 12 L 5 11 L 4 11 L 4 12 L 5 12 z M 4 11 L 4 10 L 4 9 L 4 8 L 4 7 L 4 6 L 4 5 L 3 5 L 3 6 L 3 7 L 3 8 L 3 9 L 3 10 L 3 11 L 4 11 z M 4 5 L 5 5 L 5 4 L 4 4 L 4 5 z M 8 5 L 8 6 L 8 7 L 8 8 L 7 8 L 6 8 L 6 9 L 7 9 L 8 9 L 9 9 L 9 8 L 9 7 L 9 6 L 9 5 L 8 5 z "
       style="fill:#000000;fill-opacity:1" />
  </g>
</svg>
