<?xml version="1.0" encoding="UTF-8" standalone="no"?>
<svg
   xmlns:dc="http://purl.org/dc/elements/1.1/"
   xmlns:cc="http://creativecommons.org/ns#"
   xmlns:rdf="http://www.w3.org/1999/02/22-rdf-syntax-ns#"
   xmlns:svg="http://www.w3.org/2000/svg"
   xmlns="http://www.w3.org/2000/svg"
   xmlns:sodipodi="http://sodipodi.sourceforge.net/DTD/sodipodi-0.dtd"
   xmlns:inkscape="http://www.inkscape.org/namespaces/inkscape"
   width="4.2333331mm"
   height="4.2333331mm"
   viewBox="0 0 4.2333331 4.2333331"
   version="1.1"
   id="svg8"
   inkscape:version="1.0.2 (e86c870879, 2021-01-15, custom)"
   sodipodi:docname="wrench.svg">
  <defs
     id="defs2" />
  <sodipodi:namedview
     id="base"
     pagecolor="#ffffff"
     bordercolor="#666666"
     borderopacity="1.0"
     inkscape:pageopacity="0.0"
     inkscape:pageshadow="2"
     inkscape:zoom="7.9195959"
     inkscape:cx="39.363954"
     inkscape:cy="25.646605"
     inkscape:document-units="mm"
     inkscape:current-layer="layer1"
     inkscape:document-rotation="0"
     showgrid="false"
     inkscape:window-width="1920"
     inkscape:window-height="1017"
     inkscape:window-x="-8"
     inkscape:window-y="-8"
     inkscape:window-maximized="1" />
  <metadata
     id="metadata5">
    <rdf:RDF>
      <cc:Work
         rdf:about="">
        <dc:format>image/svg+xml</dc:format>
        <dc:type
           rdf:resource="http://purl.org/dc/dcmitype/StillImage" />
        <dc:title></dc:title>
      </cc:Work>
    </rdf:RDF>
  </metadata>
  <g
     inkscape:label="Calque 1"
     inkscape:groupmode="layer"
     id="layer1"
     transform="translate(56.135174,-72.689209)">
    <path
       id="path1333"
       style="fill:#000000;fill-opacity:1;stroke-width:0.999999"
       d="M 9 1 L 9 2 L 8 2 L 8 3 L 7 3 L 7 4 L 7 5 L 7 6 L 7 7 L 6 7 L 6 8 L 5 8 L 5 9 L 4 9 L 4 10 L 3 10 L 3 11 L 2 11 L 2 12 L 1 12 L 1 13 L 0 13 L 0 14 L 0 15 L 1 15 L 1 16 L 2 16 L 3 16 L 3 15 L 4 15 L 4 14 L 5 14 L 5 13 L 6 13 L 6 12 L 7 12 L 7 11 L 8 11 L 8 10 L 9 10 L 9 9 L 10 9 L 11 9 L 12 9 L 13 9 L 13 8 L 14 8 L 14 7 L 15 7 L 15 6 L 15 5 L 15 4 L 15 3 L 14 3 L 14 4 L 13 4 L 13 5 L 12 5 L 11 5 L 11 4 L 11 3 L 12 3 L 12 2 L 13 2 L 13 1 L 12 1 L 11 1 L 10 1 L 9 1 z M 2 13 L 3 13 L 3 14 L 2 14 L 2 13 z "
       transform="matrix(0.26458333,0,0,0.26458333,-56.135174,72.689209)" />
  </g>
</svg>
