<?xml version="1.0" encoding="UTF-8" standalone="no"?>
<svg
   xmlns:dc="http://purl.org/dc/elements/1.1/"
   xmlns:cc="http://creativecommons.org/ns#"
   xmlns:rdf="http://www.w3.org/1999/02/22-rdf-syntax-ns#"
   xmlns:svg="http://www.w3.org/2000/svg"
   xmlns="http://www.w3.org/2000/svg"
   xmlns:sodipodi="http://sodipodi.sourceforge.net/DTD/sodipodi-0.dtd"
   xmlns:inkscape="http://www.inkscape.org/namespaces/inkscape"
   width="4.2333331mm"
   height="4.2333331mm"
   viewBox="0 0 4.2333331 4.2333331"
   version="1.1"
   id="svg8"
   inkscape:version="1.0.2 (e86c870879, 2021-01-15, custom)"
   sodipodi:docname="zombie.svg">
  <defs
     id="defs2" />
  <sodipodi:namedview
     id="base"
     pagecolor="#ffffff"
     bordercolor="#666666"
     borderopacity="1.0"
     inkscape:pageopacity="0.0"
     inkscape:pageshadow="2"
     inkscape:zoom="15.839192"
     inkscape:cx="27.121586"
     inkscape:cy="15.322905"
     inkscape:document-units="mm"
     inkscape:current-layer="layer1"
     inkscape:document-rotation="0"
     showgrid="false"
     inkscape:window-width="1920"
     inkscape:window-height="1017"
     inkscape:window-x="-8"
     inkscape:window-y="-8"
     inkscape:window-maximized="1" />
  <metadata
     id="metadata5">
    <rdf:RDF>
      <cc:Work
         rdf:about="">
        <dc:format>image/svg+xml</dc:format>
        <dc:type
           rdf:resource="http://purl.org/dc/dcmitype/StillImage" />
        <dc:title></dc:title>
      </cc:Work>
    </rdf:RDF>
  </metadata>
  <g
     inkscape:label="Calque 1"
     inkscape:groupmode="layer"
     id="layer1"
     transform="translate(0.0377973,-52.085121)">
    <path
       id="path524"
       style="fill:#000000;fill-opacity:1;stroke-width:0.999999"
       d="M 6 0 L 6 1 L 7 1 L 8 1 L 9 1 L 9 0 L 8 0 L 7 0 L 6 0 z M 9 1 L 9 2 L 9 3 L 9 4 L 9 5 L 10 5 L 11 5 L 12 5 L 12 6 L 12 7 L 13 7 L 13 6 L 13 5 L 13 4 L 12 4 L 11 4 L 10 4 L 10 3 L 10 2 L 10 1 L 9 1 z M 12 7 L 11 7 L 11 8 L 12 8 L 12 7 z M 11 7 L 11 6 L 10 6 L 10 7 L 11 7 z M 10 7 L 9 7 L 9 6 L 9 5 L 8 5 L 7 5 L 6 5 L 6 6 L 6 7 L 5 7 L 5 8 L 4 8 L 4 9 L 5 9 L 5 10 L 5 11 L 5 12 L 5 13 L 5 14 L 5 15 L 5 16 L 6 16 L 7 16 L 8 16 L 9 16 L 10 16 L 10 15 L 10 14 L 10 13 L 10 12 L 10 11 L 10 10 L 10 9 L 10 8 L 10 7 z M 4 9 L 3 9 L 3 10 L 4 10 L 4 9 z M 3 9 L 3 8 L 3 7 L 4 7 L 5 7 L 5 6 L 5 5 L 4 5 L 4 6 L 3 6 L 2 6 L 2 7 L 2 8 L 2 9 L 3 9 z M 5 5 L 6 5 L 6 4 L 6 3 L 6 2 L 6 1 L 5 1 L 5 2 L 5 3 L 5 4 L 5 5 z "
       transform="matrix(0.26458333,0,0,0.26458333,-0.0377973,52.085121)" />
  </g>
</svg>
